<mxfile host="app.diagrams.net" agent="Mozilla/5.0 (Windows NT 10.0; Win64; x64) AppleWebKit/537.36 (KHTML, like Gecko) Chrome/136.0.0.0 Safari/537.36 Edg/136.0.0.0" version="27.1.1" pages="3">
  <diagram name="第 1 页" id="sQYROUgLHm38iEHhPLaQ">
    <mxGraphModel dx="2177" dy="749" grid="1" gridSize="10" guides="1" tooltips="1" connect="1" arrows="1" fold="1" page="1" pageScale="1" pageWidth="827" pageHeight="1169" math="0" shadow="0">
      <root>
        <mxCell id="0" />
        <mxCell id="1" parent="0" />
        <mxCell id="b1RBJ78e9yClAMsC0I4h-2" value="Pool" style="swimlane;childLayout=stackLayout;resizeParent=1;resizeParentMax=0;horizontal=1;startSize=20;horizontalStack=0;html=1;" vertex="1" parent="1">
          <mxGeometry x="60" y="70" width="1520" height="330" as="geometry" />
        </mxCell>
        <mxCell id="b1RBJ78e9yClAMsC0I4h-3" value="production" style="swimlane;startSize=20;horizontal=0;html=1;" vertex="1" parent="b1RBJ78e9yClAMsC0I4h-2">
          <mxGeometry y="20" width="1520" height="310" as="geometry" />
        </mxCell>
        <mxCell id="b1RBJ78e9yClAMsC0I4h-19" value="" style="edgeStyle=orthogonalEdgeStyle;rounded=0;orthogonalLoop=1;jettySize=auto;html=1;" edge="1" parent="b1RBJ78e9yClAMsC0I4h-3" source="b1RBJ78e9yClAMsC0I4h-11" target="b1RBJ78e9yClAMsC0I4h-12">
          <mxGeometry relative="1" as="geometry" />
        </mxCell>
        <mxCell id="b1RBJ78e9yClAMsC0I4h-11" value="收到forecast、&lt;div&gt;开plan&lt;/div&gt;" style="shape=parallelogram;perimeter=parallelogramPerimeter;whiteSpace=wrap;html=1;fixedSize=1;" vertex="1" parent="b1RBJ78e9yClAMsC0I4h-3">
          <mxGeometry x="60" y="60" width="120" height="60" as="geometry" />
        </mxCell>
        <mxCell id="b1RBJ78e9yClAMsC0I4h-14" value="" style="edgeStyle=orthogonalEdgeStyle;rounded=0;orthogonalLoop=1;jettySize=auto;html=1;" edge="1" parent="b1RBJ78e9yClAMsC0I4h-3" source="b1RBJ78e9yClAMsC0I4h-12" target="b1RBJ78e9yClAMsC0I4h-13">
          <mxGeometry relative="1" as="geometry" />
        </mxCell>
        <mxCell id="b1RBJ78e9yClAMsC0I4h-12" value="PRODUCT STANDARD&lt;div&gt;FORMULA&amp;nbsp;&lt;/div&gt;" style="rounded=0;whiteSpace=wrap;html=1;" vertex="1" parent="b1RBJ78e9yClAMsC0I4h-3">
          <mxGeometry x="234" y="60" width="120" height="60" as="geometry" />
        </mxCell>
        <mxCell id="b1RBJ78e9yClAMsC0I4h-18" value="" style="edgeStyle=orthogonalEdgeStyle;rounded=0;orthogonalLoop=1;jettySize=auto;html=1;" edge="1" parent="b1RBJ78e9yClAMsC0I4h-3" source="b1RBJ78e9yClAMsC0I4h-13" target="b1RBJ78e9yClAMsC0I4h-17">
          <mxGeometry relative="1" as="geometry" />
        </mxCell>
        <mxCell id="b1RBJ78e9yClAMsC0I4h-20" value="对比" style="edgeLabel;html=1;align=center;verticalAlign=middle;resizable=0;points=[];" vertex="1" connectable="0" parent="b1RBJ78e9yClAMsC0I4h-18">
          <mxGeometry x="-0.0465" y="2" relative="1" as="geometry">
            <mxPoint as="offset" />
          </mxGeometry>
        </mxCell>
        <mxCell id="b1RBJ78e9yClAMsC0I4h-13" value="BOM" style="rounded=0;whiteSpace=wrap;html=1;" vertex="1" parent="b1RBJ78e9yClAMsC0I4h-3">
          <mxGeometry x="434" y="60" width="120" height="60" as="geometry" />
        </mxCell>
        <mxCell id="b1RBJ78e9yClAMsC0I4h-22" value="" style="edgeStyle=orthogonalEdgeStyle;rounded=0;orthogonalLoop=1;jettySize=auto;html=1;" edge="1" parent="b1RBJ78e9yClAMsC0I4h-3" source="b1RBJ78e9yClAMsC0I4h-17" target="b1RBJ78e9yClAMsC0I4h-21">
          <mxGeometry relative="1" as="geometry" />
        </mxCell>
        <mxCell id="b1RBJ78e9yClAMsC0I4h-23" value="差异小" style="edgeLabel;html=1;align=center;verticalAlign=middle;resizable=0;points=[];" vertex="1" connectable="0" parent="b1RBJ78e9yClAMsC0I4h-22">
          <mxGeometry x="0.0647" y="1" relative="1" as="geometry">
            <mxPoint as="offset" />
          </mxGeometry>
        </mxCell>
        <mxCell id="b1RBJ78e9yClAMsC0I4h-25" value="" style="edgeStyle=orthogonalEdgeStyle;rounded=0;orthogonalLoop=1;jettySize=auto;html=1;" edge="1" parent="b1RBJ78e9yClAMsC0I4h-3" source="b1RBJ78e9yClAMsC0I4h-17">
          <mxGeometry relative="1" as="geometry">
            <mxPoint x="700.0344827586209" y="149.9999999999999" as="targetPoint" />
          </mxGeometry>
        </mxCell>
        <mxCell id="b1RBJ78e9yClAMsC0I4h-17" value="PRODUCT STANDARD&lt;div&gt;FORMULA&amp;nbsp;&lt;/div&gt;" style="rhombus;whiteSpace=wrap;html=1;" vertex="1" parent="b1RBJ78e9yClAMsC0I4h-3">
          <mxGeometry x="640" y="50" width="120" height="80" as="geometry" />
        </mxCell>
        <mxCell id="b1RBJ78e9yClAMsC0I4h-21" value="BOM" style="whiteSpace=wrap;html=1;" vertex="1" parent="b1RBJ78e9yClAMsC0I4h-3">
          <mxGeometry x="840" y="60" width="120" height="60" as="geometry" />
        </mxCell>
        <mxCell id="b1RBJ78e9yClAMsC0I4h-26" value="差异大" style="text;html=1;align=center;verticalAlign=middle;whiteSpace=wrap;rounded=0;" vertex="1" parent="b1RBJ78e9yClAMsC0I4h-3">
          <mxGeometry x="700" y="120" width="60" height="30" as="geometry" />
        </mxCell>
        <mxCell id="b1RBJ78e9yClAMsC0I4h-29" value="" style="edgeStyle=orthogonalEdgeStyle;rounded=0;orthogonalLoop=1;jettySize=auto;html=1;" edge="1" parent="b1RBJ78e9yClAMsC0I4h-3" source="b1RBJ78e9yClAMsC0I4h-27" target="b1RBJ78e9yClAMsC0I4h-28">
          <mxGeometry relative="1" as="geometry" />
        </mxCell>
        <mxCell id="b1RBJ78e9yClAMsC0I4h-30" value="&lt;div&gt;&lt;span style=&quot;font-size: 12px; text-wrap-mode: wrap; background-color: rgb(236, 236, 236);&quot;&gt;&lt;br&gt;&lt;/span&gt;&lt;/div&gt;" style="edgeLabel;html=1;align=center;verticalAlign=middle;resizable=0;points=[];" vertex="1" connectable="0" parent="b1RBJ78e9yClAMsC0I4h-29">
          <mxGeometry x="-0.2101" y="1" relative="1" as="geometry">
            <mxPoint as="offset" />
          </mxGeometry>
        </mxCell>
        <mxCell id="b1RBJ78e9yClAMsC0I4h-36" value="确认修改" style="edgeLabel;html=1;align=center;verticalAlign=middle;resizable=0;points=[];" vertex="1" connectable="0" parent="b1RBJ78e9yClAMsC0I4h-29">
          <mxGeometry x="0.0199" y="-2" relative="1" as="geometry">
            <mxPoint as="offset" />
          </mxGeometry>
        </mxCell>
        <mxCell id="b1RBJ78e9yClAMsC0I4h-51" value="" style="edgeStyle=orthogonalEdgeStyle;rounded=0;orthogonalLoop=1;jettySize=auto;html=1;" edge="1" parent="b1RBJ78e9yClAMsC0I4h-3" source="b1RBJ78e9yClAMsC0I4h-27" target="b1RBJ78e9yClAMsC0I4h-46">
          <mxGeometry relative="1" as="geometry" />
        </mxCell>
        <mxCell id="b1RBJ78e9yClAMsC0I4h-27" value="技师、资深人士&lt;div&gt;确认&lt;/div&gt;" style="rhombus;whiteSpace=wrap;html=1;" vertex="1" parent="b1RBJ78e9yClAMsC0I4h-3">
          <mxGeometry x="640" y="150" width="120" height="80" as="geometry" />
        </mxCell>
        <mxCell id="b1RBJ78e9yClAMsC0I4h-32" value="" style="edgeStyle=orthogonalEdgeStyle;rounded=0;orthogonalLoop=1;jettySize=auto;html=1;" edge="1" parent="b1RBJ78e9yClAMsC0I4h-3" source="b1RBJ78e9yClAMsC0I4h-28">
          <mxGeometry relative="1" as="geometry">
            <mxPoint x="360" y="189.9999999999999" as="targetPoint" />
          </mxGeometry>
        </mxCell>
        <mxCell id="b1RBJ78e9yClAMsC0I4h-33" value="INACTIVE&lt;div&gt;旧的&lt;/div&gt;" style="edgeLabel;html=1;align=center;verticalAlign=middle;resizable=0;points=[];" vertex="1" connectable="0" parent="b1RBJ78e9yClAMsC0I4h-32">
          <mxGeometry x="0.061" y="-2" relative="1" as="geometry">
            <mxPoint as="offset" />
          </mxGeometry>
        </mxCell>
        <mxCell id="b1RBJ78e9yClAMsC0I4h-28" value="&lt;div&gt;BOM 更新为&lt;/div&gt;&lt;div&gt;NEW&lt;/div&gt;STANDARD&lt;div&gt;FORMULA&lt;/div&gt;&lt;div&gt;update version&lt;/div&gt;" style="whiteSpace=wrap;html=1;" vertex="1" parent="b1RBJ78e9yClAMsC0I4h-3">
          <mxGeometry x="434" y="160" width="120" height="60" as="geometry" />
        </mxCell>
        <mxCell id="b1RBJ78e9yClAMsC0I4h-35" value="" style="edgeStyle=orthogonalEdgeStyle;rounded=0;orthogonalLoop=1;jettySize=auto;html=1;" edge="1" parent="b1RBJ78e9yClAMsC0I4h-3" source="b1RBJ78e9yClAMsC0I4h-34" target="b1RBJ78e9yClAMsC0I4h-12">
          <mxGeometry relative="1" as="geometry" />
        </mxCell>
        <mxCell id="b1RBJ78e9yClAMsC0I4h-34" value="active&lt;div&gt;&lt;div&gt;NEW&lt;/div&gt;STANDARD&lt;div&gt;FORMULA&lt;/div&gt;&lt;/div&gt;" style="rounded=0;whiteSpace=wrap;html=1;" vertex="1" parent="b1RBJ78e9yClAMsC0I4h-3">
          <mxGeometry x="234" y="160" width="120" height="60" as="geometry" />
        </mxCell>
        <mxCell id="b1RBJ78e9yClAMsC0I4h-39" value="" style="endArrow=classic;html=1;rounded=0;" edge="1" parent="b1RBJ78e9yClAMsC0I4h-3">
          <mxGeometry width="50" height="50" relative="1" as="geometry">
            <mxPoint x="960" y="90" as="sourcePoint" />
            <mxPoint x="1060" y="90" as="targetPoint" />
          </mxGeometry>
        </mxCell>
        <mxCell id="b1RBJ78e9yClAMsC0I4h-40" value="ERP、MES" style="rounded=1;whiteSpace=wrap;html=1;dashed=1;dashPattern=8 8;" vertex="1" parent="b1RBJ78e9yClAMsC0I4h-3">
          <mxGeometry x="1060" y="60" width="120" height="60" as="geometry" />
        </mxCell>
        <mxCell id="b1RBJ78e9yClAMsC0I4h-43" value="MASTER&lt;br&gt;STANDARD" style="shape=callout;whiteSpace=wrap;html=1;perimeter=calloutPerimeter;" vertex="1" parent="b1RBJ78e9yClAMsC0I4h-3">
          <mxGeometry x="280" y="10" width="90" height="60" as="geometry" />
        </mxCell>
        <mxCell id="b1RBJ78e9yClAMsC0I4h-45" value="" style="edgeStyle=orthogonalEdgeStyle;rounded=0;orthogonalLoop=1;jettySize=auto;html=1;" edge="1" parent="b1RBJ78e9yClAMsC0I4h-3" source="b1RBJ78e9yClAMsC0I4h-44" target="b1RBJ78e9yClAMsC0I4h-11">
          <mxGeometry relative="1" as="geometry" />
        </mxCell>
        <mxCell id="b1RBJ78e9yClAMsC0I4h-44" value="ERP" style="rounded=1;whiteSpace=wrap;html=1;dashed=1;dashPattern=8 8;" vertex="1" parent="b1RBJ78e9yClAMsC0I4h-3">
          <mxGeometry x="60" y="160" width="120" height="60" as="geometry" />
        </mxCell>
        <mxCell id="b1RBJ78e9yClAMsC0I4h-46" value="保留PRODUCT STANDARD&lt;div&gt;FORMULA&amp;nbsp;&lt;/div&gt;" style="whiteSpace=wrap;html=1;" vertex="1" parent="b1RBJ78e9yClAMsC0I4h-3">
          <mxGeometry x="840" y="160" width="120" height="60" as="geometry" />
        </mxCell>
        <mxCell id="b1RBJ78e9yClAMsC0I4h-4" value="sample" style="swimlane;startSize=20;horizontal=0;html=1;" vertex="1" parent="1">
          <mxGeometry x="60" y="400" width="1520" height="440" as="geometry" />
        </mxCell>
        <mxCell id="b1RBJ78e9yClAMsC0I4h-55" value="" style="edgeStyle=orthogonalEdgeStyle;rounded=0;orthogonalLoop=1;jettySize=auto;html=1;" edge="1" parent="b1RBJ78e9yClAMsC0I4h-4" source="b1RBJ78e9yClAMsC0I4h-53" target="b1RBJ78e9yClAMsC0I4h-54">
          <mxGeometry relative="1" as="geometry" />
        </mxCell>
        <mxCell id="b1RBJ78e9yClAMsC0I4h-53" value="ERP" style="rounded=1;whiteSpace=wrap;html=1;dashed=1;dashPattern=8 8;" vertex="1" parent="b1RBJ78e9yClAMsC0I4h-4">
          <mxGeometry x="40" y="225" width="120" height="60" as="geometry" />
        </mxCell>
        <mxCell id="b1RBJ78e9yClAMsC0I4h-58" value="" style="edgeStyle=orthogonalEdgeStyle;rounded=0;orthogonalLoop=1;jettySize=auto;html=1;" edge="1" parent="b1RBJ78e9yClAMsC0I4h-4" source="b1RBJ78e9yClAMsC0I4h-54" target="b1RBJ78e9yClAMsC0I4h-57">
          <mxGeometry relative="1" as="geometry" />
        </mxCell>
        <mxCell id="b1RBJ78e9yClAMsC0I4h-54" value="收到forecast、&lt;div&gt;开plan&lt;/div&gt;" style="shape=parallelogram;perimeter=parallelogramPerimeter;whiteSpace=wrap;html=1;fixedSize=1;" vertex="1" parent="b1RBJ78e9yClAMsC0I4h-4">
          <mxGeometry x="40" y="150" width="120" height="60" as="geometry" />
        </mxCell>
        <mxCell id="b1RBJ78e9yClAMsC0I4h-56" value="1.PRODUCT&lt;div&gt;2.CRUST GRADE&lt;/div&gt;&lt;div&gt;3.COLOR&lt;/div&gt;&lt;div&gt;4.CRUST COLOR&lt;/div&gt;&lt;div&gt;5.THICKNESS&lt;/div&gt;&lt;div&gt;6.SHAVING THICKNESS&lt;/div&gt;" style="shape=document;whiteSpace=wrap;html=1;boundedLbl=1;" vertex="1" parent="b1RBJ78e9yClAMsC0I4h-4">
          <mxGeometry x="30" y="10" width="160" height="130" as="geometry" />
        </mxCell>
        <mxCell id="b1RBJ78e9yClAMsC0I4h-60" value="" style="edgeStyle=orthogonalEdgeStyle;rounded=0;orthogonalLoop=1;jettySize=auto;html=1;" edge="1" parent="b1RBJ78e9yClAMsC0I4h-4" source="b1RBJ78e9yClAMsC0I4h-57" target="b1RBJ78e9yClAMsC0I4h-59">
          <mxGeometry relative="1" as="geometry" />
        </mxCell>
        <mxCell id="b1RBJ78e9yClAMsC0I4h-57" value="PRODUCT STANDARD&lt;div&gt;FORMULA&amp;nbsp;&lt;/div&gt;" style="whiteSpace=wrap;html=1;" vertex="1" parent="b1RBJ78e9yClAMsC0I4h-4">
          <mxGeometry x="190" y="150" width="120" height="60" as="geometry" />
        </mxCell>
        <mxCell id="b1RBJ78e9yClAMsC0I4h-62" value="" style="edgeStyle=orthogonalEdgeStyle;rounded=0;orthogonalLoop=1;jettySize=auto;html=1;" edge="1" parent="b1RBJ78e9yClAMsC0I4h-4" source="b1RBJ78e9yClAMsC0I4h-59" target="b1RBJ78e9yClAMsC0I4h-61">
          <mxGeometry relative="1" as="geometry" />
        </mxCell>
        <mxCell id="b1RBJ78e9yClAMsC0I4h-59" value="BOM" style="whiteSpace=wrap;html=1;" vertex="1" parent="b1RBJ78e9yClAMsC0I4h-4">
          <mxGeometry x="340" y="150" width="120" height="60" as="geometry" />
        </mxCell>
        <mxCell id="b1RBJ78e9yClAMsC0I4h-64" value="" style="edgeStyle=orthogonalEdgeStyle;rounded=0;orthogonalLoop=1;jettySize=auto;html=1;" edge="1" parent="b1RBJ78e9yClAMsC0I4h-4" source="b1RBJ78e9yClAMsC0I4h-61" target="b1RBJ78e9yClAMsC0I4h-63">
          <mxGeometry relative="1" as="geometry" />
        </mxCell>
        <mxCell id="b1RBJ78e9yClAMsC0I4h-61" value="生产" style="whiteSpace=wrap;html=1;" vertex="1" parent="b1RBJ78e9yClAMsC0I4h-4">
          <mxGeometry x="500" y="150" width="120" height="60" as="geometry" />
        </mxCell>
        <mxCell id="b1RBJ78e9yClAMsC0I4h-67" value="" style="edgeStyle=orthogonalEdgeStyle;rounded=0;orthogonalLoop=1;jettySize=auto;html=1;" edge="1" parent="b1RBJ78e9yClAMsC0I4h-4" source="b1RBJ78e9yClAMsC0I4h-63" target="b1RBJ78e9yClAMsC0I4h-66">
          <mxGeometry relative="1" as="geometry" />
        </mxCell>
        <mxCell id="b1RBJ78e9yClAMsC0I4h-68" value="符合要求" style="edgeLabel;html=1;align=center;verticalAlign=middle;resizable=0;points=[];" vertex="1" connectable="0" parent="b1RBJ78e9yClAMsC0I4h-67">
          <mxGeometry x="-0.1" y="1" relative="1" as="geometry">
            <mxPoint as="offset" />
          </mxGeometry>
        </mxCell>
        <mxCell id="b1RBJ78e9yClAMsC0I4h-70" value="" style="edgeStyle=orthogonalEdgeStyle;rounded=0;orthogonalLoop=1;jettySize=auto;html=1;" edge="1" parent="b1RBJ78e9yClAMsC0I4h-4" source="b1RBJ78e9yClAMsC0I4h-63" target="b1RBJ78e9yClAMsC0I4h-69">
          <mxGeometry relative="1" as="geometry" />
        </mxCell>
        <mxCell id="b1RBJ78e9yClAMsC0I4h-71" value="不符合" style="edgeLabel;html=1;align=center;verticalAlign=middle;resizable=0;points=[];" vertex="1" connectable="0" parent="b1RBJ78e9yClAMsC0I4h-70">
          <mxGeometry x="-0.6333" y="-2" relative="1" as="geometry">
            <mxPoint as="offset" />
          </mxGeometry>
        </mxCell>
        <mxCell id="b1RBJ78e9yClAMsC0I4h-63" value="检查sample&lt;div&gt;产品的特性&lt;/div&gt;" style="rhombus;whiteSpace=wrap;html=1;" vertex="1" parent="b1RBJ78e9yClAMsC0I4h-4">
          <mxGeometry x="660" y="140" width="120" height="80" as="geometry" />
        </mxCell>
        <mxCell id="b1RBJ78e9yClAMsC0I4h-65" value="1.颜差&lt;div&gt;2..柔软度&lt;/div&gt;" style="shape=document;whiteSpace=wrap;html=1;boundedLbl=1;" vertex="1" parent="b1RBJ78e9yClAMsC0I4h-4">
          <mxGeometry x="657" y="50" width="110" height="80" as="geometry" />
        </mxCell>
        <mxCell id="b1RBJ78e9yClAMsC0I4h-75" value="" style="edgeStyle=orthogonalEdgeStyle;rounded=0;orthogonalLoop=1;jettySize=auto;html=1;" edge="1" parent="b1RBJ78e9yClAMsC0I4h-4" source="b1RBJ78e9yClAMsC0I4h-66" target="b1RBJ78e9yClAMsC0I4h-74">
          <mxGeometry relative="1" as="geometry" />
        </mxCell>
        <mxCell id="b1RBJ78e9yClAMsC0I4h-66" value="BOM" style="whiteSpace=wrap;html=1;" vertex="1" parent="b1RBJ78e9yClAMsC0I4h-4">
          <mxGeometry x="828.17" y="150" width="120" height="60" as="geometry" />
        </mxCell>
        <mxCell id="b1RBJ78e9yClAMsC0I4h-69" value="修改BOM" style="whiteSpace=wrap;html=1;" vertex="1" parent="b1RBJ78e9yClAMsC0I4h-4">
          <mxGeometry x="660" y="250" width="120" height="60" as="geometry" />
        </mxCell>
        <mxCell id="b1RBJ78e9yClAMsC0I4h-73" value="" style="endArrow=classic;html=1;rounded=0;entryX=0.5;entryY=1;entryDx=0;entryDy=0;" edge="1" parent="b1RBJ78e9yClAMsC0I4h-4" target="b1RBJ78e9yClAMsC0I4h-61">
          <mxGeometry width="50" height="50" relative="1" as="geometry">
            <mxPoint x="660" y="280" as="sourcePoint" />
            <mxPoint x="750" y="230" as="targetPoint" />
            <Array as="points">
              <mxPoint x="560" y="280" />
            </Array>
          </mxGeometry>
        </mxCell>
        <mxCell id="b1RBJ78e9yClAMsC0I4h-78" value="" style="edgeStyle=orthogonalEdgeStyle;rounded=0;orthogonalLoop=1;jettySize=auto;html=1;" edge="1" parent="b1RBJ78e9yClAMsC0I4h-4" source="b1RBJ78e9yClAMsC0I4h-74" target="b1RBJ78e9yClAMsC0I4h-77">
          <mxGeometry relative="1" as="geometry" />
        </mxCell>
        <mxCell id="b1RBJ78e9yClAMsC0I4h-93" value="" style="edgeStyle=orthogonalEdgeStyle;rounded=0;orthogonalLoop=1;jettySize=auto;html=1;" edge="1" parent="b1RBJ78e9yClAMsC0I4h-4" source="b1RBJ78e9yClAMsC0I4h-74" target="b1RBJ78e9yClAMsC0I4h-90">
          <mxGeometry relative="1" as="geometry" />
        </mxCell>
        <mxCell id="b1RBJ78e9yClAMsC0I4h-74" value="PRODUCT STANDARD&lt;div&gt;FORMULA&amp;nbsp;&lt;/div&gt;" style="rhombus;whiteSpace=wrap;html=1;" vertex="1" parent="b1RBJ78e9yClAMsC0I4h-4">
          <mxGeometry x="980.05" y="140" width="120" height="80" as="geometry" />
        </mxCell>
        <mxCell id="b1RBJ78e9yClAMsC0I4h-76" value="差异大" style="text;html=1;align=center;verticalAlign=middle;whiteSpace=wrap;rounded=0;" vertex="1" parent="b1RBJ78e9yClAMsC0I4h-4">
          <mxGeometry x="1030.0000000000002" y="220" width="60" height="30" as="geometry" />
        </mxCell>
        <mxCell id="b1RBJ78e9yClAMsC0I4h-77" value="技师、资深人士&lt;div&gt;确认&lt;/div&gt;" style="rhombus;whiteSpace=wrap;html=1;" vertex="1" parent="b1RBJ78e9yClAMsC0I4h-4">
          <mxGeometry x="980.05" y="250" width="120" height="80" as="geometry" />
        </mxCell>
        <mxCell id="b1RBJ78e9yClAMsC0I4h-79" value="&lt;div&gt;&lt;span style=&quot;font-size: 12px; text-wrap-mode: wrap; background-color: rgb(236, 236, 236);&quot;&gt;&lt;br&gt;&lt;/span&gt;&lt;/div&gt;" style="edgeLabel;html=1;align=center;verticalAlign=middle;resizable=0;points=[];" vertex="1" connectable="0" parent="b1RBJ78e9yClAMsC0I4h-4">
          <mxGeometry x="820.003333333333" y="371.0000000000001" as="geometry" />
        </mxCell>
        <mxCell id="b1RBJ78e9yClAMsC0I4h-80" value="确认修改" style="edgeLabel;html=1;align=center;verticalAlign=middle;resizable=0;points=[];" vertex="1" connectable="0" parent="b1RBJ78e9yClAMsC0I4h-4">
          <mxGeometry x="810.003333333333" y="368" as="geometry" />
        </mxCell>
        <mxCell id="b1RBJ78e9yClAMsC0I4h-81" value="" style="edgeStyle=orthogonalEdgeStyle;rounded=0;orthogonalLoop=1;jettySize=auto;html=1;" edge="1" parent="b1RBJ78e9yClAMsC0I4h-4" source="b1RBJ78e9yClAMsC0I4h-83">
          <mxGeometry relative="1" as="geometry">
            <mxPoint x="586" y="369.9999999999999" as="targetPoint" />
          </mxGeometry>
        </mxCell>
        <mxCell id="b1RBJ78e9yClAMsC0I4h-82" value="INACTIVE&lt;div&gt;旧的&lt;/div&gt;" style="edgeLabel;html=1;align=center;verticalAlign=middle;resizable=0;points=[];" vertex="1" connectable="0" parent="b1RBJ78e9yClAMsC0I4h-81">
          <mxGeometry x="0.061" y="-2" relative="1" as="geometry">
            <mxPoint as="offset" />
          </mxGeometry>
        </mxCell>
        <mxCell id="b1RBJ78e9yClAMsC0I4h-83" value="&lt;div&gt;BOM 更新为&lt;/div&gt;&lt;div&gt;NEW&lt;/div&gt;STANDARD&lt;div&gt;FORMULA&lt;/div&gt;&lt;div&gt;update version&lt;/div&gt;" style="whiteSpace=wrap;html=1;" vertex="1" parent="b1RBJ78e9yClAMsC0I4h-4">
          <mxGeometry x="660" y="340" width="120" height="60" as="geometry" />
        </mxCell>
        <mxCell id="b1RBJ78e9yClAMsC0I4h-84" value="active&lt;div&gt;&lt;div&gt;NEW&lt;/div&gt;STANDARD&lt;div&gt;FORMULA&lt;/div&gt;&lt;/div&gt;" style="rounded=0;whiteSpace=wrap;html=1;" vertex="1" parent="b1RBJ78e9yClAMsC0I4h-4">
          <mxGeometry x="460" y="340" width="120" height="60" as="geometry" />
        </mxCell>
        <mxCell id="b1RBJ78e9yClAMsC0I4h-85" value="" style="endArrow=classic;html=1;rounded=0;entryX=1;entryY=0.5;entryDx=0;entryDy=0;exitX=0.5;exitY=0.985;exitDx=0;exitDy=0;exitPerimeter=0;" edge="1" parent="b1RBJ78e9yClAMsC0I4h-4" source="b1RBJ78e9yClAMsC0I4h-77" target="b1RBJ78e9yClAMsC0I4h-83">
          <mxGeometry width="50" height="50" relative="1" as="geometry">
            <mxPoint x="1090" y="330" as="sourcePoint" />
            <mxPoint x="1140" y="280" as="targetPoint" />
            <Array as="points">
              <mxPoint x="1040" y="370" />
            </Array>
          </mxGeometry>
        </mxCell>
        <mxCell id="b1RBJ78e9yClAMsC0I4h-86" value="" style="endArrow=classic;html=1;rounded=0;entryX=0.5;entryY=1;entryDx=0;entryDy=0;" edge="1" parent="b1RBJ78e9yClAMsC0I4h-4" target="b1RBJ78e9yClAMsC0I4h-57">
          <mxGeometry width="50" height="50" relative="1" as="geometry">
            <mxPoint x="460" y="370" as="sourcePoint" />
            <mxPoint x="510" y="320" as="targetPoint" />
            <Array as="points">
              <mxPoint x="250" y="370" />
            </Array>
          </mxGeometry>
        </mxCell>
        <mxCell id="b1RBJ78e9yClAMsC0I4h-87" value="" style="edgeStyle=orthogonalEdgeStyle;rounded=0;orthogonalLoop=1;jettySize=auto;html=1;" edge="1" parent="b1RBJ78e9yClAMsC0I4h-4" target="b1RBJ78e9yClAMsC0I4h-88">
          <mxGeometry relative="1" as="geometry">
            <mxPoint x="1100.0500000000002" y="290" as="sourcePoint" />
          </mxGeometry>
        </mxCell>
        <mxCell id="b1RBJ78e9yClAMsC0I4h-88" value="保留PRODUCT STANDARD&lt;div&gt;FORMULA&amp;nbsp;&lt;/div&gt;" style="whiteSpace=wrap;html=1;" vertex="1" parent="b1RBJ78e9yClAMsC0I4h-4">
          <mxGeometry x="1137.2900000000002" y="260" width="120" height="60" as="geometry" />
        </mxCell>
        <mxCell id="b1RBJ78e9yClAMsC0I4h-90" value="BOM" style="whiteSpace=wrap;html=1;" vertex="1" parent="b1RBJ78e9yClAMsC0I4h-4">
          <mxGeometry x="1137.2913793103448" y="150" width="120" height="60" as="geometry" />
        </mxCell>
        <mxCell id="b1RBJ78e9yClAMsC0I4h-91" value="" style="endArrow=classic;html=1;rounded=0;" edge="1" parent="b1RBJ78e9yClAMsC0I4h-4">
          <mxGeometry width="50" height="50" relative="1" as="geometry">
            <mxPoint x="1257.2913793103448" y="180" as="sourcePoint" />
            <mxPoint x="1357.2913793103448" y="180" as="targetPoint" />
          </mxGeometry>
        </mxCell>
        <mxCell id="b1RBJ78e9yClAMsC0I4h-92" value="ERP、MES" style="rounded=1;whiteSpace=wrap;html=1;dashed=1;dashPattern=8 8;" vertex="1" parent="b1RBJ78e9yClAMsC0I4h-4">
          <mxGeometry x="1358.1713793103447" y="150" width="120" height="60" as="geometry" />
        </mxCell>
        <mxCell id="b1RBJ78e9yClAMsC0I4h-7" value="1.production的订单必须从MASTER STANDERARD得到BOM" style="shape=document;whiteSpace=wrap;html=1;boundedLbl=1;" vertex="1" parent="1">
          <mxGeometry x="-110" y="75" width="120" height="80" as="geometry" />
        </mxCell>
        <mxCell id="b1RBJ78e9yClAMsC0I4h-8" value="2.沿用现在对照上一次formula得到新的BOM" style="shape=document;whiteSpace=wrap;html=1;boundedLbl=1;" vertex="1" parent="1">
          <mxGeometry x="-110" y="185" width="120" height="80" as="geometry" />
        </mxCell>
        <mxCell id="b1RBJ78e9yClAMsC0I4h-9" value="3.从MASTER STANDARD得到的修改变动大的BOM，需要技师，资深人士的确认是否更新STANDARD，发起更新操作&amp;nbsp;" style="shape=document;whiteSpace=wrap;html=1;boundedLbl=1;" vertex="1" parent="1">
          <mxGeometry x="-110" y="295" width="120" height="170" as="geometry" />
        </mxCell>
        <mxCell id="b1RBJ78e9yClAMsC0I4h-10" value="4.STANDARD的VERSION因为什么字段修改版本" style="shape=document;whiteSpace=wrap;html=1;boundedLbl=1;" vertex="1" parent="1">
          <mxGeometry x="-110" y="505" width="120" height="80" as="geometry" />
        </mxCell>
        <mxCell id="b1RBJ78e9yClAMsC0I4h-16" value="WET BULE&lt;div&gt;CRUST&lt;/div&gt;&lt;div&gt;CHEMICAL(WEIGHT、TIME)&lt;/div&gt;&lt;div&gt;PROCESS&lt;/div&gt;&lt;div&gt;MACHINE&lt;/div&gt;" style="shape=document;whiteSpace=wrap;html=1;boundedLbl=1;" vertex="1" parent="1">
          <mxGeometry x="480" y="10" width="146" height="130" as="geometry" />
        </mxCell>
        <mxCell id="b1RBJ78e9yClAMsC0I4h-41" value="1.PRODUCT&lt;div&gt;2.CRUST&amp;nbsp;&lt;span style=&quot;background-color: transparent; color: light-dark(rgb(0, 0, 0), rgb(255, 255, 255));&quot;&gt;GRADE&lt;/span&gt;&lt;/div&gt;&lt;div&gt;3.COLOR&lt;/div&gt;&lt;div&gt;4.CRUST COLOR&lt;/div&gt;&lt;div&gt;5.THICKNESS&lt;/div&gt;&lt;div&gt;6.SHAVING THICKNESS&lt;/div&gt;" style="shape=document;whiteSpace=wrap;html=1;boundedLbl=1;" vertex="1" parent="1">
          <mxGeometry x="120" y="10" width="160" height="130" as="geometry" />
        </mxCell>
        <mxCell id="b1RBJ78e9yClAMsC0I4h-5" value="量产（大货/样板BOM）" style="swimlane;startSize=20;horizontal=0;html=1;" vertex="1" parent="1">
          <mxGeometry x="60" y="840" width="1520" height="140" as="geometry" />
        </mxCell>
        <mxCell id="b1RBJ78e9yClAMsC0I4h-95" value="1.production中会不会&lt;div&gt;有临时改变formula的情况？&lt;/div&gt;" style="ellipse;shape=cloud;whiteSpace=wrap;html=1;" vertex="1" parent="1">
          <mxGeometry x="880" y="10" width="230" height="130" as="geometry" />
        </mxCell>
      </root>
    </mxGraphModel>
  </diagram>
  <diagram id="eKDv6kV4aeMhozNe5-u2" name="第 2 页">
    <mxGraphModel grid="1" page="1" gridSize="10" guides="1" tooltips="1" connect="1" arrows="1" fold="1" pageScale="1" pageWidth="827" pageHeight="1169" math="0" shadow="0">
      <root>
        <mxCell id="0" />
        <mxCell id="1" parent="0" />
        <mxCell id="yB1N_L5eAtQZZIqY8MZO-1" value="&lt;h1 style=&quot;text-wrap-mode: wrap; text-align: left; margin-top: 0px;&quot;&gt;&lt;br&gt;&lt;/h1&gt;" style="swimlane;childLayout=stackLayout;resizeParent=1;resizeParentMax=0;horizontal=1;startSize=20;horizontalStack=0;html=1;" parent="1" vertex="1">
          <mxGeometry x="180" y="190" width="1300" height="330" as="geometry" />
        </mxCell>
        <mxCell id="yB1N_L5eAtQZZIqY8MZO-2" value="" style="swimlane;startSize=120;horizontal=0;html=1;" parent="yB1N_L5eAtQZZIqY8MZO-1" vertex="1">
          <mxGeometry y="20" width="1300" height="310" as="geometry" />
        </mxCell>
        <mxCell id="yB1N_L5eAtQZZIqY8MZO-3" value="" style="edgeStyle=orthogonalEdgeStyle;rounded=0;orthogonalLoop=1;jettySize=auto;html=1;" parent="yB1N_L5eAtQZZIqY8MZO-2" source="yB1N_L5eAtQZZIqY8MZO-4" target="yB1N_L5eAtQZZIqY8MZO-6" edge="1">
          <mxGeometry relative="1" as="geometry" />
        </mxCell>
        <mxCell id="yB1N_L5eAtQZZIqY8MZO-4" value="&lt;div&gt;生产指令&lt;/div&gt;" style="shape=parallelogram;perimeter=parallelogramPerimeter;whiteSpace=wrap;html=1;fixedSize=1;" parent="yB1N_L5eAtQZZIqY8MZO-2" vertex="1">
          <mxGeometry x="150" y="50" width="120" height="60" as="geometry" />
        </mxCell>
        <mxCell id="yB1N_L5eAtQZZIqY8MZO-5" value="" style="edgeStyle=orthogonalEdgeStyle;rounded=0;orthogonalLoop=1;jettySize=auto;html=1;" parent="yB1N_L5eAtQZZIqY8MZO-2" source="yB1N_L5eAtQZZIqY8MZO-6" target="yB1N_L5eAtQZZIqY8MZO-9" edge="1">
          <mxGeometry relative="1" as="geometry" />
        </mxCell>
        <mxCell id="yB1N_L5eAtQZZIqY8MZO-6" value="PRODUCT STANDARD&lt;div&gt;MASTER&lt;/div&gt;" style="rounded=0;whiteSpace=wrap;html=1;" parent="yB1N_L5eAtQZZIqY8MZO-2" vertex="1">
          <mxGeometry x="324" y="50" width="120" height="60" as="geometry" />
        </mxCell>
        <mxCell id="yB1N_L5eAtQZZIqY8MZO-7" value="" style="edgeStyle=orthogonalEdgeStyle;rounded=0;orthogonalLoop=1;jettySize=auto;html=1;" parent="yB1N_L5eAtQZZIqY8MZO-2" source="yB1N_L5eAtQZZIqY8MZO-9" target="yB1N_L5eAtQZZIqY8MZO-13" edge="1">
          <mxGeometry relative="1" as="geometry" />
        </mxCell>
        <mxCell id="yB1N_L5eAtQZZIqY8MZO-9" value="BOM" style="rounded=0;whiteSpace=wrap;html=1;" parent="yB1N_L5eAtQZZIqY8MZO-2" vertex="1">
          <mxGeometry x="524" y="50" width="120" height="60" as="geometry" />
        </mxCell>
        <mxCell id="yB1N_L5eAtQZZIqY8MZO-12" value="" style="edgeStyle=orthogonalEdgeStyle;rounded=0;orthogonalLoop=1;jettySize=auto;html=1;" parent="yB1N_L5eAtQZZIqY8MZO-2" source="yB1N_L5eAtQZZIqY8MZO-13" edge="1">
          <mxGeometry relative="1" as="geometry">
            <mxPoint x="790.0344827586209" y="139.9999999999999" as="targetPoint" />
          </mxGeometry>
        </mxCell>
        <mxCell id="yB1N_L5eAtQZZIqY8MZO-87" value="有变化" style="edgeLabel;html=1;align=center;verticalAlign=middle;resizable=0;points=[];" parent="yB1N_L5eAtQZZIqY8MZO-12" vertex="1" connectable="0">
          <mxGeometry x="-0.4276" y="-1" relative="1" as="geometry">
            <mxPoint y="3" as="offset" />
          </mxGeometry>
        </mxCell>
        <mxCell id="yB1N_L5eAtQZZIqY8MZO-85" value="" style="edgeStyle=orthogonalEdgeStyle;rounded=0;orthogonalLoop=1;jettySize=auto;html=1;" parent="yB1N_L5eAtQZZIqY8MZO-2" source="yB1N_L5eAtQZZIqY8MZO-13" target="yB1N_L5eAtQZZIqY8MZO-84" edge="1">
          <mxGeometry relative="1" as="geometry" />
        </mxCell>
        <mxCell id="yB1N_L5eAtQZZIqY8MZO-86" value="无变化" style="edgeLabel;html=1;align=center;verticalAlign=middle;resizable=0;points=[];" parent="yB1N_L5eAtQZZIqY8MZO-85" vertex="1" connectable="0">
          <mxGeometry x="-0.1" y="1" relative="1" as="geometry">
            <mxPoint as="offset" />
          </mxGeometry>
        </mxCell>
        <mxCell id="yB1N_L5eAtQZZIqY8MZO-13" value="PRODUCT STANDARD&lt;div&gt;FORMULA&amp;nbsp;&lt;/div&gt;" style="rhombus;whiteSpace=wrap;html=1;" parent="yB1N_L5eAtQZZIqY8MZO-2" vertex="1">
          <mxGeometry x="730" y="40" width="120" height="80" as="geometry" />
        </mxCell>
        <mxCell id="yB1N_L5eAtQZZIqY8MZO-16" value="" style="edgeStyle=orthogonalEdgeStyle;rounded=0;orthogonalLoop=1;jettySize=auto;html=1;" parent="yB1N_L5eAtQZZIqY8MZO-2" source="yB1N_L5eAtQZZIqY8MZO-20" target="yB1N_L5eAtQZZIqY8MZO-23" edge="1">
          <mxGeometry relative="1" as="geometry" />
        </mxCell>
        <mxCell id="yB1N_L5eAtQZZIqY8MZO-17" value="&lt;div&gt;&lt;span style=&quot;font-size: 12px; text-wrap-mode: wrap; background-color: rgb(236, 236, 236);&quot;&gt;&lt;br&gt;&lt;/span&gt;&lt;/div&gt;" style="edgeLabel;html=1;align=center;verticalAlign=middle;resizable=0;points=[];" parent="yB1N_L5eAtQZZIqY8MZO-16" vertex="1" connectable="0">
          <mxGeometry x="-0.2101" y="1" relative="1" as="geometry">
            <mxPoint as="offset" />
          </mxGeometry>
        </mxCell>
        <mxCell id="yB1N_L5eAtQZZIqY8MZO-19" value="" style="edgeStyle=orthogonalEdgeStyle;rounded=0;orthogonalLoop=1;jettySize=auto;html=1;" parent="yB1N_L5eAtQZZIqY8MZO-2" source="yB1N_L5eAtQZZIqY8MZO-20" target="yB1N_L5eAtQZZIqY8MZO-31" edge="1">
          <mxGeometry relative="1" as="geometry">
            <Array as="points">
              <mxPoint x="790" y="270" />
            </Array>
          </mxGeometry>
        </mxCell>
        <mxCell id="yB1N_L5eAtQZZIqY8MZO-79" value="不修改" style="edgeLabel;html=1;align=center;verticalAlign=middle;resizable=0;points=[];" parent="yB1N_L5eAtQZZIqY8MZO-19" vertex="1" connectable="0">
          <mxGeometry x="-0.2677" y="-2" relative="1" as="geometry">
            <mxPoint as="offset" />
          </mxGeometry>
        </mxCell>
        <mxCell id="yB1N_L5eAtQZZIqY8MZO-81" value="" style="edgeStyle=orthogonalEdgeStyle;rounded=0;orthogonalLoop=1;jettySize=auto;html=1;" parent="yB1N_L5eAtQZZIqY8MZO-2" source="yB1N_L5eAtQZZIqY8MZO-20" edge="1">
          <mxGeometry relative="1" as="geometry">
            <mxPoint x="930" y="180" as="targetPoint" />
          </mxGeometry>
        </mxCell>
        <mxCell id="yB1N_L5eAtQZZIqY8MZO-20" value="技师、资深人士&lt;div&gt;确认修改&lt;/div&gt;" style="rhombus;whiteSpace=wrap;html=1;" parent="yB1N_L5eAtQZZIqY8MZO-2" vertex="1">
          <mxGeometry x="730" y="140" width="120" height="80" as="geometry" />
        </mxCell>
        <mxCell id="yB1N_L5eAtQZZIqY8MZO-21" value="" style="edgeStyle=orthogonalEdgeStyle;rounded=0;orthogonalLoop=1;jettySize=auto;html=1;" parent="yB1N_L5eAtQZZIqY8MZO-2" source="yB1N_L5eAtQZZIqY8MZO-23" edge="1">
          <mxGeometry relative="1" as="geometry">
            <mxPoint x="450" y="179.9999999999999" as="targetPoint" />
          </mxGeometry>
        </mxCell>
        <mxCell id="yB1N_L5eAtQZZIqY8MZO-22" value="INACTIVE&lt;div&gt;旧的&lt;/div&gt;" style="edgeLabel;html=1;align=center;verticalAlign=middle;resizable=0;points=[];" parent="yB1N_L5eAtQZZIqY8MZO-21" vertex="1" connectable="0">
          <mxGeometry x="0.061" y="-2" relative="1" as="geometry">
            <mxPoint as="offset" />
          </mxGeometry>
        </mxCell>
        <mxCell id="yB1N_L5eAtQZZIqY8MZO-23" value="&lt;div&gt;BOM 更新为&lt;/div&gt;&lt;div&gt;NEW&lt;/div&gt;STANDARD&lt;br&gt;&lt;div&gt;&lt;span style=&quot;background-color: transparent; color: light-dark(rgb(0, 0, 0), rgb(255, 255, 255));&quot;&gt;MASTER&lt;/span&gt;&lt;/div&gt;&lt;div&gt;&lt;span style=&quot;background-color: transparent; color: light-dark(rgb(0, 0, 0), rgb(255, 255, 255));&quot;&gt;update version&lt;/span&gt;&lt;/div&gt;" style="whiteSpace=wrap;html=1;" parent="yB1N_L5eAtQZZIqY8MZO-2" vertex="1">
          <mxGeometry x="524" y="150" width="120" height="60" as="geometry" />
        </mxCell>
        <mxCell id="yB1N_L5eAtQZZIqY8MZO-24" value="" style="edgeStyle=orthogonalEdgeStyle;rounded=0;orthogonalLoop=1;jettySize=auto;html=1;" parent="yB1N_L5eAtQZZIqY8MZO-2" source="yB1N_L5eAtQZZIqY8MZO-25" target="yB1N_L5eAtQZZIqY8MZO-6" edge="1">
          <mxGeometry relative="1" as="geometry" />
        </mxCell>
        <mxCell id="yB1N_L5eAtQZZIqY8MZO-25" value="active&lt;div&gt;&lt;div&gt;NEW&lt;/div&gt;STANDARD&lt;div&gt;MASTER&lt;/div&gt;&lt;/div&gt;" style="rounded=0;whiteSpace=wrap;html=1;" parent="yB1N_L5eAtQZZIqY8MZO-2" vertex="1">
          <mxGeometry x="324" y="150" width="120" height="60" as="geometry" />
        </mxCell>
        <mxCell id="yB1N_L5eAtQZZIqY8MZO-29" value="" style="edgeStyle=orthogonalEdgeStyle;rounded=0;orthogonalLoop=1;jettySize=auto;html=1;" parent="yB1N_L5eAtQZZIqY8MZO-2" source="yB1N_L5eAtQZZIqY8MZO-30" target="yB1N_L5eAtQZZIqY8MZO-4" edge="1">
          <mxGeometry relative="1" as="geometry" />
        </mxCell>
        <mxCell id="yB1N_L5eAtQZZIqY8MZO-30" value="ERP" style="rounded=1;whiteSpace=wrap;html=1;dashed=1;dashPattern=8 8;" parent="yB1N_L5eAtQZZIqY8MZO-2" vertex="1">
          <mxGeometry x="150" y="150" width="120" height="60" as="geometry" />
        </mxCell>
        <mxCell id="yB1N_L5eAtQZZIqY8MZO-31" value="保留PRODUCT STANDARD&lt;div&gt;MASTER&lt;/div&gt;" style="whiteSpace=wrap;html=1;" parent="yB1N_L5eAtQZZIqY8MZO-2" vertex="1">
          <mxGeometry x="324" y="240" width="120" height="60" as="geometry" />
        </mxCell>
        <mxCell id="yB1N_L5eAtQZZIqY8MZO-76" value="&lt;font style=&quot;font-size: 18px;&quot;&gt;PRODUCTION&lt;/font&gt;" style="text;html=1;align=center;verticalAlign=middle;whiteSpace=wrap;rounded=0;" parent="yB1N_L5eAtQZZIqY8MZO-2" vertex="1">
          <mxGeometry x="30" y="100" width="60" height="30" as="geometry" />
        </mxCell>
        <mxCell id="yB1N_L5eAtQZZIqY8MZO-84" value="使用BOM" style="whiteSpace=wrap;html=1;" parent="yB1N_L5eAtQZZIqY8MZO-2" vertex="1">
          <mxGeometry x="930" y="50" width="120" height="60" as="geometry" />
        </mxCell>
        <mxCell id="yB1N_L5eAtQZZIqY8MZO-90" value="" style="edgeStyle=orthogonalEdgeStyle;rounded=0;orthogonalLoop=1;jettySize=auto;html=1;" parent="yB1N_L5eAtQZZIqY8MZO-2" source="yB1N_L5eAtQZZIqY8MZO-88" target="yB1N_L5eAtQZZIqY8MZO-89" edge="1">
          <mxGeometry relative="1" as="geometry" />
        </mxCell>
        <mxCell id="yB1N_L5eAtQZZIqY8MZO-88" value="使用BOM" style="whiteSpace=wrap;html=1;" parent="yB1N_L5eAtQZZIqY8MZO-2" vertex="1">
          <mxGeometry x="930" y="150" width="120" height="60" as="geometry" />
        </mxCell>
        <mxCell id="yB1N_L5eAtQZZIqY8MZO-89" value="ERP" style="rounded=1;whiteSpace=wrap;html=1;dashed=1;dashPattern=8 8;" parent="yB1N_L5eAtQZZIqY8MZO-2" vertex="1">
          <mxGeometry x="1110" y="150" width="120" height="60" as="geometry" />
        </mxCell>
        <mxCell id="yB1N_L5eAtQZZIqY8MZO-32" value="" style="swimlane;startSize=120;horizontal=0;html=1;" parent="1" vertex="1">
          <mxGeometry x="180" y="520" width="1300" height="370" as="geometry" />
        </mxCell>
        <mxCell id="yB1N_L5eAtQZZIqY8MZO-77" value="&lt;font style=&quot;font-size: 18px;&quot;&gt;SAMPLE&lt;/font&gt;" style="text;html=1;align=center;verticalAlign=middle;whiteSpace=wrap;rounded=0;fontSize=22;" parent="yB1N_L5eAtQZZIqY8MZO-32" vertex="1">
          <mxGeometry x="30" y="130" width="60" height="30" as="geometry" />
        </mxCell>
        <mxCell id="yB1N_L5eAtQZZIqY8MZO-144" value="BOM" style="whiteSpace=wrap;html=1;rounded=1;" parent="yB1N_L5eAtQZZIqY8MZO-32" vertex="1">
          <mxGeometry x="170" y="165" width="120" height="60" as="geometry" />
        </mxCell>
        <mxCell id="yB1N_L5eAtQZZIqY8MZO-151" value="" style="edgeStyle=orthogonalEdgeStyle;rounded=0;orthogonalLoop=1;jettySize=auto;html=1;" parent="yB1N_L5eAtQZZIqY8MZO-32" source="yB1N_L5eAtQZZIqY8MZO-147" target="yB1N_L5eAtQZZIqY8MZO-150" edge="1">
          <mxGeometry relative="1" as="geometry" />
        </mxCell>
        <mxCell id="yB1N_L5eAtQZZIqY8MZO-147" value="技师、资深人士&lt;div&gt;确认&lt;/div&gt;" style="rhombus;whiteSpace=wrap;html=1;rounded=1;" parent="yB1N_L5eAtQZZIqY8MZO-32" vertex="1">
          <mxGeometry x="366.47" y="155" width="120" height="80" as="geometry" />
        </mxCell>
        <mxCell id="yB1N_L5eAtQZZIqY8MZO-149" value="" style="endArrow=classic;html=1;rounded=0;entryX=0;entryY=0.5;entryDx=0;entryDy=0;" parent="yB1N_L5eAtQZZIqY8MZO-32" target="yB1N_L5eAtQZZIqY8MZO-147" edge="1">
          <mxGeometry width="50" height="50" relative="1" as="geometry">
            <mxPoint x="290" y="195" as="sourcePoint" />
            <mxPoint x="340" y="145" as="targetPoint" />
          </mxGeometry>
        </mxCell>
        <mxCell id="yB1N_L5eAtQZZIqY8MZO-153" value="" style="edgeStyle=orthogonalEdgeStyle;rounded=0;orthogonalLoop=1;jettySize=auto;html=1;" parent="yB1N_L5eAtQZZIqY8MZO-32" source="yB1N_L5eAtQZZIqY8MZO-150" edge="1">
          <mxGeometry relative="1" as="geometry">
            <mxPoint x="706.47" y="195" as="targetPoint" />
          </mxGeometry>
        </mxCell>
        <mxCell id="yB1N_L5eAtQZZIqY8MZO-150" value="生产" style="whiteSpace=wrap;html=1;rounded=1;" parent="yB1N_L5eAtQZZIqY8MZO-32" vertex="1">
          <mxGeometry x="536.47" y="165" width="120" height="60" as="geometry" />
        </mxCell>
        <mxCell id="yB1N_L5eAtQZZIqY8MZO-157" value="" style="edgeStyle=orthogonalEdgeStyle;rounded=0;orthogonalLoop=1;jettySize=auto;html=1;" parent="yB1N_L5eAtQZZIqY8MZO-32" source="yB1N_L5eAtQZZIqY8MZO-154" target="yB1N_L5eAtQZZIqY8MZO-156" edge="1">
          <mxGeometry relative="1" as="geometry" />
        </mxCell>
        <mxCell id="yB1N_L5eAtQZZIqY8MZO-158" value="符合要求" style="edgeLabel;html=1;align=center;verticalAlign=middle;resizable=0;points=[];" parent="yB1N_L5eAtQZZIqY8MZO-157" vertex="1" connectable="0">
          <mxGeometry x="-0.4" y="-1" relative="1" as="geometry">
            <mxPoint as="offset" />
          </mxGeometry>
        </mxCell>
        <mxCell id="yB1N_L5eAtQZZIqY8MZO-162" value="" style="edgeStyle=orthogonalEdgeStyle;rounded=0;orthogonalLoop=1;jettySize=auto;html=1;" parent="yB1N_L5eAtQZZIqY8MZO-32" source="yB1N_L5eAtQZZIqY8MZO-154" target="yB1N_L5eAtQZZIqY8MZO-161" edge="1">
          <mxGeometry relative="1" as="geometry" />
        </mxCell>
        <mxCell id="yB1N_L5eAtQZZIqY8MZO-163" value="不合要求" style="edgeLabel;html=1;align=center;verticalAlign=middle;resizable=0;points=[];" parent="yB1N_L5eAtQZZIqY8MZO-162" vertex="1" connectable="0">
          <mxGeometry x="-0.3593" y="2" relative="1" as="geometry">
            <mxPoint as="offset" />
          </mxGeometry>
        </mxCell>
        <mxCell id="yB1N_L5eAtQZZIqY8MZO-154" value="产品性质" style="rhombus;whiteSpace=wrap;html=1;" parent="yB1N_L5eAtQZZIqY8MZO-32" vertex="1">
          <mxGeometry x="707.47" y="155" width="140" height="80" as="geometry" />
        </mxCell>
        <mxCell id="yB1N_L5eAtQZZIqY8MZO-155" value="1.色差&lt;div&gt;2.柔软度&lt;/div&gt;" style="shape=document;whiteSpace=wrap;html=1;boundedLbl=1;" parent="yB1N_L5eAtQZZIqY8MZO-32" vertex="1">
          <mxGeometry x="716.47" y="75" width="120" height="80" as="geometry" />
        </mxCell>
        <mxCell id="yB1N_L5eAtQZZIqY8MZO-156" value="BOM" style="whiteSpace=wrap;html=1;" parent="yB1N_L5eAtQZZIqY8MZO-32" vertex="1">
          <mxGeometry x="717.47" y="275" width="120" height="60" as="geometry" />
        </mxCell>
        <mxCell id="yB1N_L5eAtQZZIqY8MZO-161" value="修改BOM" style="whiteSpace=wrap;html=1;" parent="yB1N_L5eAtQZZIqY8MZO-32" vertex="1">
          <mxGeometry x="880" y="75" width="120" height="60" as="geometry" />
        </mxCell>
        <mxCell id="yB1N_L5eAtQZZIqY8MZO-164" value="" style="endArrow=classic;html=1;rounded=0;entryX=0.5;entryY=0;entryDx=0;entryDy=0;" parent="yB1N_L5eAtQZZIqY8MZO-32" target="yB1N_L5eAtQZZIqY8MZO-150" edge="1">
          <mxGeometry width="50" height="50" relative="1" as="geometry">
            <mxPoint x="940" y="75" as="sourcePoint" />
            <mxPoint x="990" y="25" as="targetPoint" />
            <Array as="points">
              <mxPoint x="940" y="35" />
              <mxPoint x="596" y="35" />
            </Array>
          </mxGeometry>
        </mxCell>
        <mxCell id="yB1N_L5eAtQZZIqY8MZO-72" value="WET BULE&lt;div&gt;CRUST&lt;/div&gt;&lt;div&gt;CHEMICAL(WEIGHT、TIME)&lt;/div&gt;&lt;div&gt;PROCESS&lt;/div&gt;&lt;div&gt;MACHINE&lt;/div&gt;" style="shape=document;whiteSpace=wrap;html=1;boundedLbl=1;" parent="1" vertex="1">
          <mxGeometry x="904" y="40" width="146" height="130" as="geometry" />
        </mxCell>
        <mxCell id="yB1N_L5eAtQZZIqY8MZO-73" value="1.PRODUCT&lt;div&gt;2.CRUST&amp;nbsp;&lt;span style=&quot;background-color: transparent; color: light-dark(rgb(0, 0, 0), rgb(255, 255, 255));&quot;&gt;GRADE&lt;/span&gt;&lt;/div&gt;&lt;div&gt;3.COLOR&lt;/div&gt;&lt;div&gt;4.CRUST COLOR&lt;/div&gt;&lt;div&gt;5.THICKNESS&lt;/div&gt;&lt;div&gt;6.SHAVING THICKNESS&lt;/div&gt;" style="shape=document;whiteSpace=wrap;html=1;boundedLbl=1;" parent="1" vertex="1">
          <mxGeometry x="240" y="140" width="160" height="130" as="geometry" />
        </mxCell>
        <mxCell id="yB1N_L5eAtQZZIqY8MZO-74" value="" style="swimlane;startSize=120;horizontal=0;html=1;" parent="1" vertex="1">
          <mxGeometry x="180" y="890" width="1300" height="370" as="geometry" />
        </mxCell>
        <mxCell id="yB1N_L5eAtQZZIqY8MZO-78" value="TRIAL&lt;div&gt;PRODUCTION&lt;/div&gt;" style="text;html=1;align=center;verticalAlign=middle;whiteSpace=wrap;rounded=0;fontSize=19;" parent="yB1N_L5eAtQZZIqY8MZO-74" vertex="1">
          <mxGeometry x="30" y="160" width="60" height="30" as="geometry" />
        </mxCell>
        <mxCell id="_OsM61IJQfa6_wI06IGI-1" value="" style="edgeStyle=orthogonalEdgeStyle;rounded=0;orthogonalLoop=1;jettySize=auto;html=1;" edge="1" parent="yB1N_L5eAtQZZIqY8MZO-74" source="_OsM61IJQfa6_wI06IGI-2" target="_OsM61IJQfa6_wI06IGI-4">
          <mxGeometry relative="1" as="geometry" />
        </mxCell>
        <mxCell id="_OsM61IJQfa6_wI06IGI-2" value="&lt;div&gt;生产指令&lt;/div&gt;" style="shape=parallelogram;perimeter=parallelogramPerimeter;whiteSpace=wrap;html=1;fixedSize=1;" vertex="1" parent="yB1N_L5eAtQZZIqY8MZO-74">
          <mxGeometry x="160" y="80" width="120" height="60" as="geometry" />
        </mxCell>
        <mxCell id="_OsM61IJQfa6_wI06IGI-3" value="" style="edgeStyle=orthogonalEdgeStyle;rounded=0;orthogonalLoop=1;jettySize=auto;html=1;" edge="1" parent="yB1N_L5eAtQZZIqY8MZO-74" source="_OsM61IJQfa6_wI06IGI-4" target="_OsM61IJQfa6_wI06IGI-6">
          <mxGeometry relative="1" as="geometry" />
        </mxCell>
        <mxCell id="_OsM61IJQfa6_wI06IGI-4" value="PRODUCT STANDARD&lt;div&gt;MASTER&lt;/div&gt;" style="rounded=0;whiteSpace=wrap;html=1;" vertex="1" parent="yB1N_L5eAtQZZIqY8MZO-74">
          <mxGeometry x="334" y="80" width="120" height="60" as="geometry" />
        </mxCell>
        <mxCell id="_OsM61IJQfa6_wI06IGI-5" value="" style="edgeStyle=orthogonalEdgeStyle;rounded=0;orthogonalLoop=1;jettySize=auto;html=1;" edge="1" parent="yB1N_L5eAtQZZIqY8MZO-74" source="_OsM61IJQfa6_wI06IGI-6" target="_OsM61IJQfa6_wI06IGI-11">
          <mxGeometry relative="1" as="geometry" />
        </mxCell>
        <mxCell id="_OsM61IJQfa6_wI06IGI-6" value="BOM" style="rounded=0;whiteSpace=wrap;html=1;" vertex="1" parent="yB1N_L5eAtQZZIqY8MZO-74">
          <mxGeometry x="534" y="80" width="120" height="60" as="geometry" />
        </mxCell>
        <mxCell id="_OsM61IJQfa6_wI06IGI-7" value="" style="edgeStyle=orthogonalEdgeStyle;rounded=0;orthogonalLoop=1;jettySize=auto;html=1;" edge="1" parent="yB1N_L5eAtQZZIqY8MZO-74" source="_OsM61IJQfa6_wI06IGI-11">
          <mxGeometry relative="1" as="geometry">
            <mxPoint x="800.0344827586209" y="170" as="targetPoint" />
          </mxGeometry>
        </mxCell>
        <mxCell id="_OsM61IJQfa6_wI06IGI-8" value="有变化" style="edgeLabel;html=1;align=center;verticalAlign=middle;resizable=0;points=[];" vertex="1" connectable="0" parent="_OsM61IJQfa6_wI06IGI-7">
          <mxGeometry x="-0.4276" y="-1" relative="1" as="geometry">
            <mxPoint y="3" as="offset" />
          </mxGeometry>
        </mxCell>
        <mxCell id="_OsM61IJQfa6_wI06IGI-9" value="" style="edgeStyle=orthogonalEdgeStyle;rounded=0;orthogonalLoop=1;jettySize=auto;html=1;" edge="1" parent="yB1N_L5eAtQZZIqY8MZO-74" source="_OsM61IJQfa6_wI06IGI-11" target="_OsM61IJQfa6_wI06IGI-26">
          <mxGeometry relative="1" as="geometry" />
        </mxCell>
        <mxCell id="_OsM61IJQfa6_wI06IGI-10" value="无变化" style="edgeLabel;html=1;align=center;verticalAlign=middle;resizable=0;points=[];" vertex="1" connectable="0" parent="_OsM61IJQfa6_wI06IGI-9">
          <mxGeometry x="-0.1" y="1" relative="1" as="geometry">
            <mxPoint as="offset" />
          </mxGeometry>
        </mxCell>
        <mxCell id="_OsM61IJQfa6_wI06IGI-11" value="PRODUCT STANDARD&lt;div&gt;FORMULA&amp;nbsp;&lt;/div&gt;" style="rhombus;whiteSpace=wrap;html=1;" vertex="1" parent="yB1N_L5eAtQZZIqY8MZO-74">
          <mxGeometry x="740" y="70" width="120" height="80" as="geometry" />
        </mxCell>
        <mxCell id="_OsM61IJQfa6_wI06IGI-12" value="" style="edgeStyle=orthogonalEdgeStyle;rounded=0;orthogonalLoop=1;jettySize=auto;html=1;" edge="1" parent="yB1N_L5eAtQZZIqY8MZO-74" source="_OsM61IJQfa6_wI06IGI-17" target="_OsM61IJQfa6_wI06IGI-20">
          <mxGeometry relative="1" as="geometry" />
        </mxCell>
        <mxCell id="_OsM61IJQfa6_wI06IGI-13" value="&lt;div&gt;&lt;span style=&quot;font-size: 12px; text-wrap-mode: wrap; background-color: rgb(236, 236, 236);&quot;&gt;&lt;br&gt;&lt;/span&gt;&lt;/div&gt;" style="edgeLabel;html=1;align=center;verticalAlign=middle;resizable=0;points=[];" vertex="1" connectable="0" parent="_OsM61IJQfa6_wI06IGI-12">
          <mxGeometry x="-0.2101" y="1" relative="1" as="geometry">
            <mxPoint as="offset" />
          </mxGeometry>
        </mxCell>
        <mxCell id="_OsM61IJQfa6_wI06IGI-14" value="" style="edgeStyle=orthogonalEdgeStyle;rounded=0;orthogonalLoop=1;jettySize=auto;html=1;" edge="1" parent="yB1N_L5eAtQZZIqY8MZO-74" source="_OsM61IJQfa6_wI06IGI-17" target="_OsM61IJQfa6_wI06IGI-25">
          <mxGeometry relative="1" as="geometry">
            <Array as="points">
              <mxPoint x="800" y="300" />
            </Array>
          </mxGeometry>
        </mxCell>
        <mxCell id="_OsM61IJQfa6_wI06IGI-15" value="不修改" style="edgeLabel;html=1;align=center;verticalAlign=middle;resizable=0;points=[];" vertex="1" connectable="0" parent="_OsM61IJQfa6_wI06IGI-14">
          <mxGeometry x="-0.2677" y="-2" relative="1" as="geometry">
            <mxPoint as="offset" />
          </mxGeometry>
        </mxCell>
        <mxCell id="_OsM61IJQfa6_wI06IGI-16" value="" style="edgeStyle=orthogonalEdgeStyle;rounded=0;orthogonalLoop=1;jettySize=auto;html=1;" edge="1" parent="yB1N_L5eAtQZZIqY8MZO-74" source="_OsM61IJQfa6_wI06IGI-17">
          <mxGeometry relative="1" as="geometry">
            <mxPoint x="940" y="210" as="targetPoint" />
          </mxGeometry>
        </mxCell>
        <mxCell id="_OsM61IJQfa6_wI06IGI-17" value="技师、资深人士&lt;div&gt;确认修改&lt;/div&gt;" style="rhombus;whiteSpace=wrap;html=1;" vertex="1" parent="yB1N_L5eAtQZZIqY8MZO-74">
          <mxGeometry x="740" y="170" width="120" height="80" as="geometry" />
        </mxCell>
        <mxCell id="_OsM61IJQfa6_wI06IGI-18" value="" style="edgeStyle=orthogonalEdgeStyle;rounded=0;orthogonalLoop=1;jettySize=auto;html=1;" edge="1" parent="yB1N_L5eAtQZZIqY8MZO-74" source="_OsM61IJQfa6_wI06IGI-20">
          <mxGeometry relative="1" as="geometry">
            <mxPoint x="460" y="210" as="targetPoint" />
          </mxGeometry>
        </mxCell>
        <mxCell id="_OsM61IJQfa6_wI06IGI-19" value="INACTIVE&lt;div&gt;旧的&lt;/div&gt;" style="edgeLabel;html=1;align=center;verticalAlign=middle;resizable=0;points=[];" vertex="1" connectable="0" parent="_OsM61IJQfa6_wI06IGI-18">
          <mxGeometry x="0.061" y="-2" relative="1" as="geometry">
            <mxPoint as="offset" />
          </mxGeometry>
        </mxCell>
        <mxCell id="_OsM61IJQfa6_wI06IGI-20" value="&lt;div&gt;BOM 更新为&lt;/div&gt;&lt;div&gt;NEW&lt;/div&gt;STANDARD&lt;br&gt;&lt;div&gt;&lt;span style=&quot;background-color: transparent; color: light-dark(rgb(0, 0, 0), rgb(255, 255, 255));&quot;&gt;MASTER&lt;/span&gt;&lt;/div&gt;&lt;div&gt;&lt;span style=&quot;background-color: transparent; color: light-dark(rgb(0, 0, 0), rgb(255, 255, 255));&quot;&gt;update version&lt;/span&gt;&lt;/div&gt;" style="whiteSpace=wrap;html=1;" vertex="1" parent="yB1N_L5eAtQZZIqY8MZO-74">
          <mxGeometry x="534" y="180" width="120" height="60" as="geometry" />
        </mxCell>
        <mxCell id="_OsM61IJQfa6_wI06IGI-21" value="" style="edgeStyle=orthogonalEdgeStyle;rounded=0;orthogonalLoop=1;jettySize=auto;html=1;" edge="1" parent="yB1N_L5eAtQZZIqY8MZO-74" source="_OsM61IJQfa6_wI06IGI-22" target="_OsM61IJQfa6_wI06IGI-4">
          <mxGeometry relative="1" as="geometry" />
        </mxCell>
        <mxCell id="_OsM61IJQfa6_wI06IGI-22" value="active&lt;div&gt;&lt;div&gt;NEW&lt;/div&gt;STANDARD&lt;div&gt;MASTER&lt;/div&gt;&lt;/div&gt;" style="rounded=0;whiteSpace=wrap;html=1;" vertex="1" parent="yB1N_L5eAtQZZIqY8MZO-74">
          <mxGeometry x="334" y="180" width="120" height="60" as="geometry" />
        </mxCell>
        <mxCell id="_OsM61IJQfa6_wI06IGI-23" value="" style="edgeStyle=orthogonalEdgeStyle;rounded=0;orthogonalLoop=1;jettySize=auto;html=1;" edge="1" parent="yB1N_L5eAtQZZIqY8MZO-74" source="_OsM61IJQfa6_wI06IGI-24" target="_OsM61IJQfa6_wI06IGI-2">
          <mxGeometry relative="1" as="geometry" />
        </mxCell>
        <mxCell id="_OsM61IJQfa6_wI06IGI-24" value="ERP" style="rounded=1;whiteSpace=wrap;html=1;dashed=1;dashPattern=8 8;" vertex="1" parent="yB1N_L5eAtQZZIqY8MZO-74">
          <mxGeometry x="160" y="180" width="120" height="60" as="geometry" />
        </mxCell>
        <mxCell id="_OsM61IJQfa6_wI06IGI-25" value="保留PRODUCT STANDARD&lt;div&gt;MASTER&lt;/div&gt;" style="whiteSpace=wrap;html=1;" vertex="1" parent="yB1N_L5eAtQZZIqY8MZO-74">
          <mxGeometry x="334" y="270" width="120" height="60" as="geometry" />
        </mxCell>
        <mxCell id="_OsM61IJQfa6_wI06IGI-26" value="使用BOM" style="whiteSpace=wrap;html=1;" vertex="1" parent="yB1N_L5eAtQZZIqY8MZO-74">
          <mxGeometry x="940" y="80" width="120" height="60" as="geometry" />
        </mxCell>
        <mxCell id="_OsM61IJQfa6_wI06IGI-27" value="" style="edgeStyle=orthogonalEdgeStyle;rounded=0;orthogonalLoop=1;jettySize=auto;html=1;" edge="1" parent="yB1N_L5eAtQZZIqY8MZO-74" source="_OsM61IJQfa6_wI06IGI-28" target="_OsM61IJQfa6_wI06IGI-29">
          <mxGeometry relative="1" as="geometry" />
        </mxCell>
        <mxCell id="_OsM61IJQfa6_wI06IGI-28" value="使用BOM" style="whiteSpace=wrap;html=1;" vertex="1" parent="yB1N_L5eAtQZZIqY8MZO-74">
          <mxGeometry x="940" y="180" width="120" height="60" as="geometry" />
        </mxCell>
        <mxCell id="_OsM61IJQfa6_wI06IGI-29" value="ERP" style="rounded=1;whiteSpace=wrap;html=1;dashed=1;dashPattern=8 8;" vertex="1" parent="yB1N_L5eAtQZZIqY8MZO-74">
          <mxGeometry x="1120" y="180" width="120" height="60" as="geometry" />
        </mxCell>
        <mxCell id="yB1N_L5eAtQZZIqY8MZO-82" value="forecast" style="text;html=1;align=center;verticalAlign=middle;whiteSpace=wrap;rounded=0;" parent="1" vertex="1">
          <mxGeometry x="370" y="140" width="60" height="30" as="geometry" />
        </mxCell>
        <mxCell id="_OsM61IJQfa6_wI06IGI-30" value="&lt;h1 style=&quot;margin-top: 0px;&quot;&gt;PSM&amp;nbsp;&lt;/h1&gt;&lt;h1 style=&quot;margin-top: 0px;&quot;&gt;Product Standard Master&lt;/h1&gt;&lt;p&gt;负责配方所有的基础数据管理，包括WET BULE、crust、chemical（weight、time）、process、machine&lt;/p&gt;&lt;p&gt;负责所有配方版本的管理&lt;/p&gt;&lt;p&gt;&lt;br&gt;&lt;/p&gt;" style="text;html=1;whiteSpace=wrap;overflow=hidden;rounded=0;" vertex="1" parent="1">
          <mxGeometry x="24" y="10" width="390" height="120" as="geometry" />
        </mxCell>
        <mxCell id="_OsM61IJQfa6_wI06IGI-33" value="&lt;h1 style=&quot;text-align: left; margin-top: 0px;&quot;&gt;&lt;span style=&quot;background-color: rgb(255, 255, 255); color: rgba(0, 0, 0, 0.85); font-family: Inter, -apple-system, BlinkMacSystemFont, &amp;quot;Segoe UI&amp;quot;, &amp;quot;SF Pro SC&amp;quot;, &amp;quot;SF Pro Display&amp;quot;, &amp;quot;SF Pro Icons&amp;quot;, &amp;quot;PingFang SC&amp;quot;, &amp;quot;Hiragino Sans GB&amp;quot;, &amp;quot;Microsoft YaHei&amp;quot;, &amp;quot;Helvetica Neue&amp;quot;, Helvetica, Arial, sans-serif;&quot;&gt;&lt;font style=&quot;font-size: 20px;&quot;&gt;The process of PSM creating the&amp;nbsp; standard BOM&lt;/font&gt;&lt;/span&gt;&lt;/h1&gt;" style="text;html=1;align=center;verticalAlign=middle;whiteSpace=wrap;rounded=0;fontSize=12;fontStyle=1" vertex="1" parent="1">
          <mxGeometry x="-250" y="160" width="1300" height="30" as="geometry" />
        </mxCell>
        <mxCell id="_OsM61IJQfa6_wI06IGI-31" value="&lt;h1 style=&quot;margin-top: 0px;&quot;&gt;PSM&lt;/h1&gt;" style="text;html=1;whiteSpace=wrap;overflow=hidden;rounded=0;" vertex="1" parent="1">
          <mxGeometry x="440" y="20" width="180" height="120" as="geometry" />
        </mxCell>
      </root>
    </mxGraphModel>
  </diagram>
  <diagram id="462S1rcYRfKMpk2pEkwJ" name="第 3 页">
    <mxGraphModel dx="1668" dy="925" grid="1" gridSize="10" guides="1" tooltips="1" connect="1" arrows="1" fold="1" page="1" pageScale="1" pageWidth="827" pageHeight="1169" math="0" shadow="0">
      <root>
        <mxCell id="0" />
        <mxCell id="1" parent="0" />
        <mxCell id="InysJ3s7hWKg2gHQ2SVu-1" value="&lt;h1 style=&quot;text-wrap-mode: wrap; text-align: left; margin-top: 0px;&quot;&gt;&lt;br&gt;&lt;/h1&gt;" style="swimlane;childLayout=stackLayout;resizeParent=1;resizeParentMax=0;horizontal=1;startSize=20;horizontalStack=0;html=1;" vertex="1" parent="1">
          <mxGeometry x="310" y="340" width="1200" height="360" as="geometry" />
        </mxCell>
        <mxCell id="InysJ3s7hWKg2gHQ2SVu-2" value="" style="swimlane;startSize=120;horizontal=0;html=1;" vertex="1" parent="InysJ3s7hWKg2gHQ2SVu-1">
          <mxGeometry y="20" width="1200" height="340" as="geometry" />
        </mxCell>
        <mxCell id="InysJ3s7hWKg2gHQ2SVu-28" value="&lt;font style=&quot;font-size: 17px;&quot;&gt;&lt;b&gt;PRODUCTION&lt;/b&gt;&lt;/font&gt;" style="text;html=1;align=center;verticalAlign=middle;whiteSpace=wrap;rounded=0;" vertex="1" parent="InysJ3s7hWKg2gHQ2SVu-2">
          <mxGeometry x="30" y="130" width="60" height="30" as="geometry" />
        </mxCell>
        <mxCell id="InysJ3s7hWKg2gHQ2SVu-87" value="" style="edgeStyle=orthogonalEdgeStyle;rounded=0;orthogonalLoop=1;jettySize=auto;html=1;fontStyle=1" edge="1" parent="InysJ3s7hWKg2gHQ2SVu-2" source="InysJ3s7hWKg2gHQ2SVu-85" target="InysJ3s7hWKg2gHQ2SVu-86">
          <mxGeometry relative="1" as="geometry" />
        </mxCell>
        <mxCell id="InysJ3s7hWKg2gHQ2SVu-85" value="Accept Production&lt;div&gt;instructions&lt;/div&gt;" style="shape=parallelogram;perimeter=parallelogramPerimeter;whiteSpace=wrap;html=1;fixedSize=1;fontStyle=1" vertex="1" parent="InysJ3s7hWKg2gHQ2SVu-2">
          <mxGeometry x="160" y="50" width="120" height="60" as="geometry" />
        </mxCell>
        <mxCell id="yK8Zo3AVcZrI5DbEX7TS-3" value="" style="edgeStyle=orthogonalEdgeStyle;rounded=0;orthogonalLoop=1;jettySize=auto;html=1;fontStyle=1" edge="1" parent="InysJ3s7hWKg2gHQ2SVu-2" source="InysJ3s7hWKg2gHQ2SVu-86" target="yK8Zo3AVcZrI5DbEX7TS-2">
          <mxGeometry relative="1" as="geometry" />
        </mxCell>
        <mxCell id="InysJ3s7hWKg2gHQ2SVu-86" value="PRODUCT&amp;nbsp;&lt;div&gt;STANDARD&lt;div&gt;MASTER&lt;/div&gt;&lt;/div&gt;&lt;div&gt;(PSM)&lt;/div&gt;" style="rhombus;whiteSpace=wrap;html=1;fontStyle=1" vertex="1" parent="InysJ3s7hWKg2gHQ2SVu-2">
          <mxGeometry x="320" y="40" width="140" height="80" as="geometry" />
        </mxCell>
        <mxCell id="yK8Zo3AVcZrI5DbEX7TS-5" value="" style="edgeStyle=orthogonalEdgeStyle;rounded=0;orthogonalLoop=1;jettySize=auto;html=1;fontStyle=1" edge="1" parent="InysJ3s7hWKg2gHQ2SVu-2" source="yK8Zo3AVcZrI5DbEX7TS-2" target="yK8Zo3AVcZrI5DbEX7TS-4">
          <mxGeometry relative="1" as="geometry" />
        </mxCell>
        <mxCell id="yK8Zo3AVcZrI5DbEX7TS-2" value="BOM" style="whiteSpace=wrap;html=1;fontStyle=1" vertex="1" parent="InysJ3s7hWKg2gHQ2SVu-2">
          <mxGeometry x="500" y="50" width="120" height="60" as="geometry" />
        </mxCell>
        <mxCell id="yK8Zo3AVcZrI5DbEX7TS-7" value="" style="edgeStyle=orthogonalEdgeStyle;rounded=0;orthogonalLoop=1;jettySize=auto;html=1;fontStyle=1" edge="1" parent="InysJ3s7hWKg2gHQ2SVu-2" source="yK8Zo3AVcZrI5DbEX7TS-4" target="yK8Zo3AVcZrI5DbEX7TS-6">
          <mxGeometry relative="1" as="geometry" />
        </mxCell>
        <mxCell id="yK8Zo3AVcZrI5DbEX7TS-12" value="" style="edgeStyle=orthogonalEdgeStyle;rounded=0;orthogonalLoop=1;jettySize=auto;html=1;entryX=0.5;entryY=0;entryDx=0;entryDy=0;entryPerimeter=0;fontStyle=1" edge="1" parent="InysJ3s7hWKg2gHQ2SVu-2" source="yK8Zo3AVcZrI5DbEX7TS-4" target="yK8Zo3AVcZrI5DbEX7TS-14">
          <mxGeometry relative="1" as="geometry">
            <mxPoint x="770" y="165" as="targetPoint" />
          </mxGeometry>
        </mxCell>
        <mxCell id="yK8Zo3AVcZrI5DbEX7TS-13" value="&lt;font style=&quot;font-size: 15px;&quot;&gt;&lt;span&gt;BOM CHANGES&lt;/span&gt;&lt;/font&gt;" style="edgeLabel;html=1;align=center;verticalAlign=middle;resizable=0;points=[];fontStyle=1" vertex="1" connectable="0" parent="yK8Zo3AVcZrI5DbEX7TS-12">
          <mxGeometry x="-0.2" y="-2" relative="1" as="geometry">
            <mxPoint as="offset" />
          </mxGeometry>
        </mxCell>
        <mxCell id="yK8Zo3AVcZrI5DbEX7TS-4" value="Technicians or senior&lt;div&gt;personnel confirm&lt;/div&gt;&lt;div&gt;with standard master&lt;span style=&quot;background-color: transparent; color: light-dark(rgb(0, 0, 0), rgb(255, 255, 255));&quot;&gt;&amp;nbsp;&lt;/span&gt;&lt;/div&gt;" style="rhombus;whiteSpace=wrap;html=1;fontStyle=1" vertex="1" parent="InysJ3s7hWKg2gHQ2SVu-2">
          <mxGeometry x="700" y="40" width="140" height="80" as="geometry" />
        </mxCell>
        <mxCell id="yK8Zo3AVcZrI5DbEX7TS-10" value="" style="edgeStyle=orthogonalEdgeStyle;rounded=0;orthogonalLoop=1;jettySize=auto;html=1;fontStyle=1" edge="1" parent="InysJ3s7hWKg2gHQ2SVu-2" source="yK8Zo3AVcZrI5DbEX7TS-6" target="yK8Zo3AVcZrI5DbEX7TS-9">
          <mxGeometry relative="1" as="geometry" />
        </mxCell>
        <mxCell id="yK8Zo3AVcZrI5DbEX7TS-6" value="BOM" style="whiteSpace=wrap;html=1;fontStyle=1" vertex="1" parent="InysJ3s7hWKg2gHQ2SVu-2">
          <mxGeometry x="890" y="50" width="120" height="60" as="geometry" />
        </mxCell>
        <mxCell id="yK8Zo3AVcZrI5DbEX7TS-9" value="Production" style="whiteSpace=wrap;html=1;fontStyle=1" vertex="1" parent="InysJ3s7hWKg2gHQ2SVu-2">
          <mxGeometry x="1047" y="50" width="120" height="60" as="geometry" />
        </mxCell>
        <mxCell id="RJhz81pqPjftsagTQ6HM-6" value="" style="edgeStyle=orthogonalEdgeStyle;rounded=0;orthogonalLoop=1;jettySize=auto;html=1;fontStyle=1" edge="1" parent="InysJ3s7hWKg2gHQ2SVu-2" source="yK8Zo3AVcZrI5DbEX7TS-14" target="RJhz81pqPjftsagTQ6HM-5">
          <mxGeometry relative="1" as="geometry" />
        </mxCell>
        <mxCell id="RJhz81pqPjftsagTQ6HM-7" value="&lt;font style=&quot;font-size: 15px;&quot;&gt;&lt;span&gt;修改&lt;/span&gt;&lt;/font&gt;" style="edgeLabel;html=1;align=center;verticalAlign=middle;resizable=0;points=[];fontStyle=1" vertex="1" connectable="0" parent="RJhz81pqPjftsagTQ6HM-6">
          <mxGeometry x="-0.1799" y="1" relative="1" as="geometry">
            <mxPoint as="offset" />
          </mxGeometry>
        </mxCell>
        <mxCell id="TsqTSnYdNcVAVAN9SHJ8-2" value="" style="edgeStyle=orthogonalEdgeStyle;rounded=0;orthogonalLoop=1;jettySize=auto;html=1;entryX=1;entryY=0.5;entryDx=0;entryDy=0;fontStyle=1" edge="1" parent="InysJ3s7hWKg2gHQ2SVu-2" source="yK8Zo3AVcZrI5DbEX7TS-14" target="TsqTSnYdNcVAVAN9SHJ8-1">
          <mxGeometry relative="1" as="geometry">
            <Array as="points">
              <mxPoint x="770" y="280" />
            </Array>
          </mxGeometry>
        </mxCell>
        <mxCell id="TsqTSnYdNcVAVAN9SHJ8-4" value="&lt;font style=&quot;font-size: 15px;&quot;&gt;&lt;span&gt;不修改&lt;/span&gt;&lt;/font&gt;" style="edgeLabel;html=1;align=center;verticalAlign=middle;resizable=0;points=[];fontStyle=1" vertex="1" connectable="0" parent="TsqTSnYdNcVAVAN9SHJ8-2">
          <mxGeometry x="-0.1644" y="1" relative="1" as="geometry">
            <mxPoint as="offset" />
          </mxGeometry>
        </mxCell>
        <mxCell id="yK8Zo3AVcZrI5DbEX7TS-14" value="&lt;font style=&quot;font-size: 13px;&quot;&gt;是否修改&lt;/font&gt;&lt;div&gt;&lt;font style=&quot;font-size: 13px;&quot;&gt;STANDARD&lt;/font&gt;&lt;/div&gt;&lt;div&gt;&lt;font style=&quot;font-size: 13px;&quot;&gt;MATSER&lt;/font&gt;&lt;/div&gt;" style="rhombus;whiteSpace=wrap;html=1;fontStyle=1" vertex="1" parent="InysJ3s7hWKg2gHQ2SVu-2">
          <mxGeometry x="700" y="160" width="140" height="80" as="geometry" />
        </mxCell>
        <mxCell id="RJhz81pqPjftsagTQ6HM-10" value="" style="edgeStyle=orthogonalEdgeStyle;rounded=0;orthogonalLoop=1;jettySize=auto;html=1;fontStyle=1" edge="1" parent="InysJ3s7hWKg2gHQ2SVu-2" source="RJhz81pqPjftsagTQ6HM-5" target="RJhz81pqPjftsagTQ6HM-9">
          <mxGeometry relative="1" as="geometry" />
        </mxCell>
        <mxCell id="RJhz81pqPjftsagTQ6HM-5" value="THE NEW BOM&lt;div&gt;CONFIRM BECOME STANDARD MASTER&lt;/div&gt;" style="whiteSpace=wrap;html=1;fontStyle=1" vertex="1" parent="InysJ3s7hWKg2gHQ2SVu-2">
          <mxGeometry x="500" y="170" width="120" height="60" as="geometry" />
        </mxCell>
        <mxCell id="-K2IqHkKx-bDhHtV1VLH-1" value="" style="edgeStyle=orthogonalEdgeStyle;rounded=0;orthogonalLoop=1;jettySize=auto;html=1;fontStyle=1" edge="1" parent="InysJ3s7hWKg2gHQ2SVu-2" source="RJhz81pqPjftsagTQ6HM-9" target="InysJ3s7hWKg2gHQ2SVu-86">
          <mxGeometry relative="1" as="geometry" />
        </mxCell>
        <mxCell id="RJhz81pqPjftsagTQ6HM-9" value="&lt;font style=&quot;font-size: 9px;&quot;&gt;ACTIVE THE NEW BOM&lt;/font&gt;&lt;div&gt;&lt;font style=&quot;font-size: 9px;&quot;&gt;INACTIVE THE OLD&amp;nbsp;&lt;/font&gt;&lt;span style=&quot;font-size: 9px; background-color: transparent; color: light-dark(rgb(0, 0, 0), rgb(255, 255, 255));&quot;&gt;BOM&lt;/span&gt;&lt;/div&gt;&lt;div&gt;&lt;span style=&quot;font-size: 9px; background-color: transparent; color: light-dark(rgb(0, 0, 0), rgb(255, 255, 255));&quot;&gt;UPDATE THE STANDARD VERSION&amp;nbsp;&lt;/span&gt;&lt;/div&gt;" style="whiteSpace=wrap;html=1;fontStyle=1" vertex="1" parent="InysJ3s7hWKg2gHQ2SVu-2">
          <mxGeometry x="305" y="170" width="170" height="60" as="geometry" />
        </mxCell>
        <mxCell id="TsqTSnYdNcVAVAN9SHJ8-1" value="RETAIN&amp;nbsp;&lt;span style=&quot;background-color: transparent; color: light-dark(rgb(0, 0, 0), rgb(255, 255, 255));&quot;&gt;THE&lt;/span&gt;&lt;div&gt;STANDARD VERSION&lt;/div&gt;" style="whiteSpace=wrap;html=1;fontStyle=1" vertex="1" parent="InysJ3s7hWKg2gHQ2SVu-2">
          <mxGeometry x="330" y="250" width="120" height="60" as="geometry" />
        </mxCell>
        <mxCell id="InysJ3s7hWKg2gHQ2SVu-33" value="" style="swimlane;startSize=120;horizontal=0;html=1;" vertex="1" parent="1">
          <mxGeometry x="310" y="700" width="1200" height="390" as="geometry" />
        </mxCell>
        <mxCell id="InysJ3s7hWKg2gHQ2SVu-34" value="&lt;font style=&quot;font-size: 17px;&quot;&gt;&lt;b&gt;SAMPLE&lt;/b&gt;&lt;/font&gt;" style="text;html=1;align=center;verticalAlign=middle;whiteSpace=wrap;rounded=0;fontSize=22;" vertex="1" parent="InysJ3s7hWKg2gHQ2SVu-33">
          <mxGeometry x="30" y="130" width="60" height="30" as="geometry" />
        </mxCell>
        <mxCell id="TsqTSnYdNcVAVAN9SHJ8-34" value="" style="edgeStyle=orthogonalEdgeStyle;rounded=0;orthogonalLoop=1;jettySize=auto;html=1;fontStyle=1" edge="1" parent="InysJ3s7hWKg2gHQ2SVu-33" source="TsqTSnYdNcVAVAN9SHJ8-31" target="TsqTSnYdNcVAVAN9SHJ8-33">
          <mxGeometry relative="1" as="geometry" />
        </mxCell>
        <mxCell id="TsqTSnYdNcVAVAN9SHJ8-31" value="Accept Production&lt;div&gt;instructions&lt;/div&gt;" style="shape=parallelogram;perimeter=parallelogramPerimeter;whiteSpace=wrap;html=1;fixedSize=1;fontStyle=1" vertex="1" parent="InysJ3s7hWKg2gHQ2SVu-33">
          <mxGeometry x="150" y="70" width="120" height="60" as="geometry" />
        </mxCell>
        <mxCell id="YI-dJQeMkAw3y7r0nDLJ-17" value="" style="edgeStyle=orthogonalEdgeStyle;rounded=0;orthogonalLoop=1;jettySize=auto;html=1;fontStyle=1" edge="1" parent="InysJ3s7hWKg2gHQ2SVu-33" source="TsqTSnYdNcVAVAN9SHJ8-33" target="YI-dJQeMkAw3y7r0nDLJ-16">
          <mxGeometry relative="1" as="geometry" />
        </mxCell>
        <mxCell id="TsqTSnYdNcVAVAN9SHJ8-33" value="BOM reorded file" style="whiteSpace=wrap;html=1;fontStyle=1" vertex="1" parent="InysJ3s7hWKg2gHQ2SVu-33">
          <mxGeometry x="290" y="70" width="120" height="60" as="geometry" />
        </mxCell>
        <mxCell id="YI-dJQeMkAw3y7r0nDLJ-4" value="" style="edgeStyle=orthogonalEdgeStyle;rounded=0;orthogonalLoop=1;jettySize=auto;html=1;fontStyle=1" edge="1" parent="InysJ3s7hWKg2gHQ2SVu-33" source="YI-dJQeMkAw3y7r0nDLJ-1" target="YI-dJQeMkAw3y7r0nDLJ-3">
          <mxGeometry relative="1" as="geometry" />
        </mxCell>
        <mxCell id="YI-dJQeMkAw3y7r0nDLJ-1" value="技师、资深人士&lt;div&gt;核实&lt;/div&gt;" style="rhombus;whiteSpace=wrap;html=1;fontStyle=1" vertex="1" parent="InysJ3s7hWKg2gHQ2SVu-33">
          <mxGeometry x="580" y="60" width="140" height="80" as="geometry" />
        </mxCell>
        <mxCell id="YI-dJQeMkAw3y7r0nDLJ-6" value="" style="edgeStyle=orthogonalEdgeStyle;rounded=0;orthogonalLoop=1;jettySize=auto;html=1;fontStyle=1" edge="1" parent="InysJ3s7hWKg2gHQ2SVu-33" source="YI-dJQeMkAw3y7r0nDLJ-3" target="YI-dJQeMkAw3y7r0nDLJ-5">
          <mxGeometry relative="1" as="geometry" />
        </mxCell>
        <mxCell id="YI-dJQeMkAw3y7r0nDLJ-3" value="生产" style="whiteSpace=wrap;html=1;fontStyle=1" vertex="1" parent="InysJ3s7hWKg2gHQ2SVu-33">
          <mxGeometry x="753" y="70" width="120" height="60" as="geometry" />
        </mxCell>
        <mxCell id="YI-dJQeMkAw3y7r0nDLJ-13" value="" style="edgeStyle=orthogonalEdgeStyle;rounded=0;orthogonalLoop=1;jettySize=auto;html=1;fontStyle=1" edge="1" parent="InysJ3s7hWKg2gHQ2SVu-33" source="YI-dJQeMkAw3y7r0nDLJ-5" target="YI-dJQeMkAw3y7r0nDLJ-7">
          <mxGeometry relative="1" as="geometry" />
        </mxCell>
        <mxCell id="YI-dJQeMkAw3y7r0nDLJ-14" value="&lt;span&gt;&lt;font style=&quot;font-size: 15px;&quot;&gt;达到要求&lt;/font&gt;&lt;/span&gt;" style="edgeLabel;html=1;align=center;verticalAlign=middle;resizable=0;points=[];fontStyle=1" vertex="1" connectable="0" parent="YI-dJQeMkAw3y7r0nDLJ-13">
          <mxGeometry x="-0.1667" relative="1" as="geometry">
            <mxPoint as="offset" />
          </mxGeometry>
        </mxCell>
        <mxCell id="YI-dJQeMkAw3y7r0nDLJ-5" value="产品检查" style="rhombus;whiteSpace=wrap;html=1;fontStyle=1" vertex="1" parent="InysJ3s7hWKg2gHQ2SVu-33">
          <mxGeometry x="913" y="60" width="140" height="80" as="geometry" />
        </mxCell>
        <mxCell id="YI-dJQeMkAw3y7r0nDLJ-7" value="BOM record" style="whiteSpace=wrap;html=1;fontStyle=1" vertex="1" parent="InysJ3s7hWKg2gHQ2SVu-33">
          <mxGeometry x="923" y="180" width="120" height="60" as="geometry" />
        </mxCell>
        <mxCell id="YI-dJQeMkAw3y7r0nDLJ-10" value="" style="endArrow=classic;html=1;rounded=0;entryX=0.5;entryY=0;entryDx=0;entryDy=0;fontStyle=1" edge="1" parent="InysJ3s7hWKg2gHQ2SVu-33" target="YI-dJQeMkAw3y7r0nDLJ-3">
          <mxGeometry width="50" height="50" relative="1" as="geometry">
            <mxPoint x="983" y="60" as="sourcePoint" />
            <mxPoint x="1033" y="10" as="targetPoint" />
            <Array as="points">
              <mxPoint x="983" y="30" />
              <mxPoint x="813" y="30" />
            </Array>
          </mxGeometry>
        </mxCell>
        <mxCell id="YI-dJQeMkAw3y7r0nDLJ-15" value="&lt;font style=&quot;font-size: 15px;&quot;&gt;&lt;span&gt;未达要求&lt;/span&gt;&lt;/font&gt;" style="edgeLabel;html=1;align=center;verticalAlign=middle;resizable=0;points=[];fontStyle=1" vertex="1" connectable="0" parent="YI-dJQeMkAw3y7r0nDLJ-10">
          <mxGeometry x="-0.0111" y="2" relative="1" as="geometry">
            <mxPoint as="offset" />
          </mxGeometry>
        </mxCell>
        <mxCell id="YI-dJQeMkAw3y7r0nDLJ-18" value="" style="edgeStyle=orthogonalEdgeStyle;rounded=0;orthogonalLoop=1;jettySize=auto;html=1;fontStyle=1" edge="1" parent="InysJ3s7hWKg2gHQ2SVu-33" source="YI-dJQeMkAw3y7r0nDLJ-16" target="YI-dJQeMkAw3y7r0nDLJ-1">
          <mxGeometry relative="1" as="geometry" />
        </mxCell>
        <mxCell id="YI-dJQeMkAw3y7r0nDLJ-16" value="NEW BOM&lt;div&gt;（符合sample的）&lt;/div&gt;" style="whiteSpace=wrap;html=1;fontStyle=1" vertex="1" parent="InysJ3s7hWKg2gHQ2SVu-33">
          <mxGeometry x="430" y="70" width="120" height="60" as="geometry" />
        </mxCell>
        <mxCell id="YI-dJQeMkAw3y7r0nDLJ-19" value="" style="endArrow=classic;html=1;rounded=0;exitX=0;exitY=0.5;exitDx=0;exitDy=0;fontStyle=1" edge="1" parent="InysJ3s7hWKg2gHQ2SVu-33" source="YI-dJQeMkAw3y7r0nDLJ-7">
          <mxGeometry width="50" height="50" relative="1" as="geometry">
            <mxPoint x="920" y="210" as="sourcePoint" />
            <mxPoint x="350" y="130" as="targetPoint" />
            <Array as="points">
              <mxPoint x="350" y="210" />
            </Array>
          </mxGeometry>
        </mxCell>
        <mxCell id="4ZG7u3nSVOpMNKRXbFHn-1" value="1.色差&lt;div&gt;2.柔软度&lt;/div&gt;" style="shape=document;whiteSpace=wrap;html=1;boundedLbl=1;fontStyle=1" vertex="1" parent="InysJ3s7hWKg2gHQ2SVu-33">
          <mxGeometry x="1060" y="40" width="120" height="80" as="geometry" />
        </mxCell>
        <mxCell id="4ZG7u3nSVOpMNKRXbFHn-6" value="" style="edgeStyle=orthogonalEdgeStyle;rounded=0;orthogonalLoop=1;jettySize=auto;html=1;" edge="1" parent="InysJ3s7hWKg2gHQ2SVu-33" source="4ZG7u3nSVOpMNKRXbFHn-4" target="4ZG7u3nSVOpMNKRXbFHn-5">
          <mxGeometry relative="1" as="geometry" />
        </mxCell>
        <mxCell id="4ZG7u3nSVOpMNKRXbFHn-4" value="BOM reorded file" style="whiteSpace=wrap;html=1;fontStyle=1" vertex="1" parent="InysJ3s7hWKg2gHQ2SVu-33">
          <mxGeometry x="290" y="270" width="120" height="60" as="geometry" />
        </mxCell>
        <mxCell id="4ZG7u3nSVOpMNKRXbFHn-8" value="" style="edgeStyle=orthogonalEdgeStyle;rounded=0;orthogonalLoop=1;jettySize=auto;html=1;" edge="1" parent="InysJ3s7hWKg2gHQ2SVu-33" source="4ZG7u3nSVOpMNKRXbFHn-5" target="4ZG7u3nSVOpMNKRXbFHn-7">
          <mxGeometry relative="1" as="geometry" />
        </mxCell>
        <mxCell id="4ZG7u3nSVOpMNKRXbFHn-5" value="技师、资深人士&lt;div&gt;approval&lt;/div&gt;" style="rhombus;whiteSpace=wrap;html=1;fontStyle=1" vertex="1" parent="InysJ3s7hWKg2gHQ2SVu-33">
          <mxGeometry x="470" y="260" width="140" height="80" as="geometry" />
        </mxCell>
        <mxCell id="4ZG7u3nSVOpMNKRXbFHn-7" value="PRODUCT&lt;div&gt;STANDARD&lt;/div&gt;&lt;div&gt;MASTER&lt;/div&gt;" style="whiteSpace=wrap;html=1;fontStyle=1;" vertex="1" parent="InysJ3s7hWKg2gHQ2SVu-33">
          <mxGeometry x="680" y="270" width="120" height="60" as="geometry" />
        </mxCell>
        <mxCell id="4ZG7u3nSVOpMNKRXbFHn-10" value="" style="edgeStyle=orthogonalEdgeStyle;rounded=0;orthogonalLoop=1;jettySize=auto;html=1;" edge="1" parent="InysJ3s7hWKg2gHQ2SVu-33" source="4ZG7u3nSVOpMNKRXbFHn-9" target="4ZG7u3nSVOpMNKRXbFHn-4">
          <mxGeometry relative="1" as="geometry" />
        </mxCell>
        <mxCell id="4ZG7u3nSVOpMNKRXbFHn-9" value="Accept Production&lt;div&gt;instructions&lt;/div&gt;" style="shape=parallelogram;perimeter=parallelogramPerimeter;whiteSpace=wrap;html=1;fixedSize=1;fontStyle=1" vertex="1" parent="InysJ3s7hWKg2gHQ2SVu-33">
          <mxGeometry x="130" y="270" width="120" height="60" as="geometry" />
        </mxCell>
        <mxCell id="InysJ3s7hWKg2gHQ2SVu-50" value="&lt;div&gt;&lt;font&gt;&lt;br&gt;&lt;/font&gt;&lt;/div&gt;&lt;div&gt;&lt;font&gt;Bill Of Material（BOM）:&lt;/font&gt;&lt;div&gt;&lt;font&gt;WET BULE&lt;/font&gt;&lt;div&gt;&lt;font&gt;CRUST&lt;/font&gt;&lt;/div&gt;&lt;div&gt;&lt;font&gt;CHEMICAL(WEIGHT、TIME)&lt;/font&gt;&lt;/div&gt;&lt;div&gt;&lt;font&gt;PROCESS&lt;/font&gt;&lt;/div&gt;&lt;div&gt;&lt;font&gt;MACHINE&lt;/font&gt;&lt;/div&gt;&lt;/div&gt;&lt;/div&gt;" style="shape=document;whiteSpace=wrap;html=1;boundedLbl=1;align=left;fontStyle=1;fontSize=12;" vertex="1" parent="1">
          <mxGeometry x="840" y="300" width="163" height="110" as="geometry" />
        </mxCell>
        <mxCell id="InysJ3s7hWKg2gHQ2SVu-51" value="1.PRODUCT&lt;div&gt;2.CRUST&amp;nbsp;&lt;span style=&quot;background-color: transparent; color: light-dark(rgb(0, 0, 0), rgb(255, 255, 255));&quot;&gt;GRADE&lt;/span&gt;&lt;/div&gt;&lt;div&gt;3.COLOR&lt;/div&gt;&lt;div&gt;4.CRUST COLOR&lt;/div&gt;&lt;div&gt;5.THICKNESS&lt;/div&gt;&lt;div&gt;6.SHAVING THICKNESS&lt;/div&gt;" style="shape=document;whiteSpace=wrap;html=1;boundedLbl=1;align=left;" vertex="1" parent="1">
          <mxGeometry x="140" y="410" width="160" height="130" as="geometry" />
        </mxCell>
        <mxCell id="InysJ3s7hWKg2gHQ2SVu-52" value="" style="swimlane;startSize=120;horizontal=0;html=1;" vertex="1" parent="1">
          <mxGeometry x="310" y="1090" width="1200" height="340" as="geometry" />
        </mxCell>
        <mxCell id="InysJ3s7hWKg2gHQ2SVu-53" value="&lt;font style=&quot;font-size: 17px;&quot;&gt;&lt;b&gt;TRIAL&lt;/b&gt;&lt;/font&gt;&lt;div&gt;&lt;font style=&quot;font-size: 17px;&quot;&gt;&lt;b&gt;PRODUCTION&lt;/b&gt;&lt;/font&gt;&lt;/div&gt;" style="text;html=1;align=center;verticalAlign=middle;whiteSpace=wrap;rounded=0;fontSize=19;" vertex="1" parent="InysJ3s7hWKg2gHQ2SVu-52">
          <mxGeometry x="30" y="149" width="60" height="30" as="geometry" />
        </mxCell>
        <mxCell id="TsqTSnYdNcVAVAN9SHJ8-8" value="" style="edgeStyle=orthogonalEdgeStyle;rounded=0;orthogonalLoop=1;jettySize=auto;html=1;fontStyle=1" edge="1" parent="InysJ3s7hWKg2gHQ2SVu-52" source="TsqTSnYdNcVAVAN9SHJ8-9" target="TsqTSnYdNcVAVAN9SHJ8-11">
          <mxGeometry relative="1" as="geometry" />
        </mxCell>
        <mxCell id="TsqTSnYdNcVAVAN9SHJ8-9" value="Accept Production&lt;div&gt;instructions&lt;/div&gt;" style="shape=parallelogram;perimeter=parallelogramPerimeter;whiteSpace=wrap;html=1;fixedSize=1;fontStyle=1" vertex="1" parent="InysJ3s7hWKg2gHQ2SVu-52">
          <mxGeometry x="140" y="59" width="120" height="60" as="geometry" />
        </mxCell>
        <mxCell id="TsqTSnYdNcVAVAN9SHJ8-10" value="" style="edgeStyle=orthogonalEdgeStyle;rounded=0;orthogonalLoop=1;jettySize=auto;html=1;fontStyle=1" edge="1" parent="InysJ3s7hWKg2gHQ2SVu-52" source="TsqTSnYdNcVAVAN9SHJ8-11" target="TsqTSnYdNcVAVAN9SHJ8-13">
          <mxGeometry relative="1" as="geometry" />
        </mxCell>
        <mxCell id="TsqTSnYdNcVAVAN9SHJ8-11" value="PRODUCT&amp;nbsp;&lt;div&gt;STANDARD&lt;div&gt;MASTER&lt;/div&gt;&lt;/div&gt;" style="rhombus;whiteSpace=wrap;html=1;fontStyle=1" vertex="1" parent="InysJ3s7hWKg2gHQ2SVu-52">
          <mxGeometry x="300" y="49" width="140" height="80" as="geometry" />
        </mxCell>
        <mxCell id="TsqTSnYdNcVAVAN9SHJ8-12" value="" style="edgeStyle=orthogonalEdgeStyle;rounded=0;orthogonalLoop=1;jettySize=auto;html=1;fontStyle=1" edge="1" parent="InysJ3s7hWKg2gHQ2SVu-52" source="TsqTSnYdNcVAVAN9SHJ8-13" target="TsqTSnYdNcVAVAN9SHJ8-17">
          <mxGeometry relative="1" as="geometry" />
        </mxCell>
        <mxCell id="TsqTSnYdNcVAVAN9SHJ8-13" value="BOM" style="whiteSpace=wrap;html=1;fontStyle=1" vertex="1" parent="InysJ3s7hWKg2gHQ2SVu-52">
          <mxGeometry x="480" y="59" width="120" height="60" as="geometry" />
        </mxCell>
        <mxCell id="TsqTSnYdNcVAVAN9SHJ8-14" value="" style="edgeStyle=orthogonalEdgeStyle;rounded=0;orthogonalLoop=1;jettySize=auto;html=1;fontStyle=1" edge="1" parent="InysJ3s7hWKg2gHQ2SVu-52" source="TsqTSnYdNcVAVAN9SHJ8-17" target="TsqTSnYdNcVAVAN9SHJ8-19">
          <mxGeometry relative="1" as="geometry" />
        </mxCell>
        <mxCell id="TsqTSnYdNcVAVAN9SHJ8-15" value="" style="edgeStyle=orthogonalEdgeStyle;rounded=0;orthogonalLoop=1;jettySize=auto;html=1;entryX=0.5;entryY=0;entryDx=0;entryDy=0;entryPerimeter=0;fontStyle=1" edge="1" parent="InysJ3s7hWKg2gHQ2SVu-52" source="TsqTSnYdNcVAVAN9SHJ8-17" target="TsqTSnYdNcVAVAN9SHJ8-25">
          <mxGeometry relative="1" as="geometry">
            <mxPoint x="750" y="174" as="targetPoint" />
          </mxGeometry>
        </mxCell>
        <mxCell id="TsqTSnYdNcVAVAN9SHJ8-16" value="&lt;span style=&quot;font-size: 15px;&quot;&gt;BOM CHANGES&lt;/span&gt;" style="edgeLabel;html=1;align=center;verticalAlign=middle;resizable=0;points=[];fontStyle=1" vertex="1" connectable="0" parent="TsqTSnYdNcVAVAN9SHJ8-15">
          <mxGeometry x="-0.2" y="-2" relative="1" as="geometry">
            <mxPoint as="offset" />
          </mxGeometry>
        </mxCell>
        <mxCell id="TsqTSnYdNcVAVAN9SHJ8-17" value="技师、资深人士&lt;div&gt;与STANDARD MASTER&lt;/div&gt;&lt;div&gt;核实&lt;/div&gt;" style="rhombus;whiteSpace=wrap;html=1;fontStyle=1" vertex="1" parent="InysJ3s7hWKg2gHQ2SVu-52">
          <mxGeometry x="680" y="49" width="140" height="80" as="geometry" />
        </mxCell>
        <mxCell id="TsqTSnYdNcVAVAN9SHJ8-18" value="" style="edgeStyle=orthogonalEdgeStyle;rounded=0;orthogonalLoop=1;jettySize=auto;html=1;fontStyle=1" edge="1" parent="InysJ3s7hWKg2gHQ2SVu-52" source="TsqTSnYdNcVAVAN9SHJ8-19" target="TsqTSnYdNcVAVAN9SHJ8-20">
          <mxGeometry relative="1" as="geometry" />
        </mxCell>
        <mxCell id="TsqTSnYdNcVAVAN9SHJ8-19" value="BOM" style="whiteSpace=wrap;html=1;fontStyle=1" vertex="1" parent="InysJ3s7hWKg2gHQ2SVu-52">
          <mxGeometry x="870" y="59" width="120" height="60" as="geometry" />
        </mxCell>
        <mxCell id="TsqTSnYdNcVAVAN9SHJ8-20" value="生产" style="whiteSpace=wrap;html=1;fontStyle=1" vertex="1" parent="InysJ3s7hWKg2gHQ2SVu-52">
          <mxGeometry x="1027" y="59" width="120" height="60" as="geometry" />
        </mxCell>
        <mxCell id="TsqTSnYdNcVAVAN9SHJ8-21" value="" style="edgeStyle=orthogonalEdgeStyle;rounded=0;orthogonalLoop=1;jettySize=auto;html=1;fontStyle=1" edge="1" parent="InysJ3s7hWKg2gHQ2SVu-52" source="TsqTSnYdNcVAVAN9SHJ8-25" target="TsqTSnYdNcVAVAN9SHJ8-27">
          <mxGeometry relative="1" as="geometry" />
        </mxCell>
        <mxCell id="TsqTSnYdNcVAVAN9SHJ8-22" value="修改" style="edgeLabel;html=1;align=center;verticalAlign=middle;resizable=0;points=[];fontSize=15;fontStyle=1" vertex="1" connectable="0" parent="TsqTSnYdNcVAVAN9SHJ8-21">
          <mxGeometry x="-0.1799" y="1" relative="1" as="geometry">
            <mxPoint as="offset" />
          </mxGeometry>
        </mxCell>
        <mxCell id="TsqTSnYdNcVAVAN9SHJ8-23" value="" style="edgeStyle=orthogonalEdgeStyle;rounded=0;orthogonalLoop=1;jettySize=auto;html=1;entryX=1;entryY=0.5;entryDx=0;entryDy=0;fontStyle=1" edge="1" parent="InysJ3s7hWKg2gHQ2SVu-52" source="TsqTSnYdNcVAVAN9SHJ8-25" target="TsqTSnYdNcVAVAN9SHJ8-30">
          <mxGeometry relative="1" as="geometry">
            <Array as="points">
              <mxPoint x="750" y="289" />
            </Array>
          </mxGeometry>
        </mxCell>
        <mxCell id="TsqTSnYdNcVAVAN9SHJ8-24" value="不修改" style="edgeLabel;html=1;align=center;verticalAlign=middle;resizable=0;points=[];fontSize=15;fontStyle=1" vertex="1" connectable="0" parent="TsqTSnYdNcVAVAN9SHJ8-23">
          <mxGeometry x="-0.1644" y="1" relative="1" as="geometry">
            <mxPoint as="offset" />
          </mxGeometry>
        </mxCell>
        <mxCell id="TsqTSnYdNcVAVAN9SHJ8-25" value="&lt;font style=&quot;font-size: 13px;&quot;&gt;是否修改&lt;/font&gt;&lt;div&gt;&lt;font style=&quot;font-size: 13px;&quot;&gt;STANDARD&lt;/font&gt;&lt;/div&gt;&lt;div&gt;&lt;font style=&quot;font-size: 13px;&quot;&gt;MATSER&lt;/font&gt;&lt;/div&gt;" style="rhombus;whiteSpace=wrap;html=1;fontStyle=1" vertex="1" parent="InysJ3s7hWKg2gHQ2SVu-52">
          <mxGeometry x="680" y="169" width="140" height="80" as="geometry" />
        </mxCell>
        <mxCell id="TsqTSnYdNcVAVAN9SHJ8-26" value="" style="edgeStyle=orthogonalEdgeStyle;rounded=0;orthogonalLoop=1;jettySize=auto;html=1;fontStyle=1" edge="1" parent="InysJ3s7hWKg2gHQ2SVu-52" source="TsqTSnYdNcVAVAN9SHJ8-27" target="TsqTSnYdNcVAVAN9SHJ8-29">
          <mxGeometry relative="1" as="geometry" />
        </mxCell>
        <mxCell id="TsqTSnYdNcVAVAN9SHJ8-27" value="THE NEW BOM&lt;div&gt;CONFIRM BECOME STANDARD MASTER&lt;/div&gt;" style="whiteSpace=wrap;html=1;fontStyle=1" vertex="1" parent="InysJ3s7hWKg2gHQ2SVu-52">
          <mxGeometry x="480" y="179" width="120" height="60" as="geometry" />
        </mxCell>
        <mxCell id="TsqTSnYdNcVAVAN9SHJ8-28" value="" style="edgeStyle=orthogonalEdgeStyle;rounded=0;orthogonalLoop=1;jettySize=auto;html=1;fontStyle=1" edge="1" parent="InysJ3s7hWKg2gHQ2SVu-52" source="TsqTSnYdNcVAVAN9SHJ8-29" target="TsqTSnYdNcVAVAN9SHJ8-11">
          <mxGeometry relative="1" as="geometry" />
        </mxCell>
        <mxCell id="TsqTSnYdNcVAVAN9SHJ8-29" value="&lt;font style=&quot;font-size: 9px;&quot;&gt;ACTIVE THE NEW BOM&lt;/font&gt;&lt;div&gt;&lt;font style=&quot;font-size: 9px;&quot;&gt;INACTIVE THE OLD&amp;nbsp;&lt;/font&gt;&lt;span style=&quot;font-size: 9px; background-color: transparent; color: light-dark(rgb(0, 0, 0), rgb(255, 255, 255));&quot;&gt;BOM&lt;/span&gt;&lt;/div&gt;&lt;div&gt;&lt;span style=&quot;font-size: 9px; background-color: transparent; color: light-dark(rgb(0, 0, 0), rgb(255, 255, 255));&quot;&gt;UPDATE THE STANDARD VERSION&amp;nbsp;&lt;/span&gt;&lt;/div&gt;" style="whiteSpace=wrap;html=1;fontStyle=1" vertex="1" parent="InysJ3s7hWKg2gHQ2SVu-52">
          <mxGeometry x="285" y="179" width="170" height="60" as="geometry" />
        </mxCell>
        <mxCell id="TsqTSnYdNcVAVAN9SHJ8-30" value="RETAIN&amp;nbsp;&lt;span style=&quot;background-color: transparent; color: light-dark(rgb(0, 0, 0), rgb(255, 255, 255));&quot;&gt;THE&lt;/span&gt;&lt;div&gt;STANDARD VERSION&lt;/div&gt;" style="whiteSpace=wrap;html=1;fontStyle=1" vertex="1" parent="InysJ3s7hWKg2gHQ2SVu-52">
          <mxGeometry x="310" y="259" width="120" height="60" as="geometry" />
        </mxCell>
        <mxCell id="InysJ3s7hWKg2gHQ2SVu-83" value="forecast" style="text;html=1;align=center;verticalAlign=middle;whiteSpace=wrap;rounded=0;" vertex="1" parent="1">
          <mxGeometry x="130" y="360" width="60" height="30" as="geometry" />
        </mxCell>
        <mxCell id="InysJ3s7hWKg2gHQ2SVu-84" value="&lt;h1 style=&quot;margin-top: 0px;&quot;&gt;PSM&amp;nbsp;&lt;/h1&gt;&lt;h1 style=&quot;margin-top: 0px;&quot;&gt;Product Standard Master&lt;/h1&gt;&lt;p&gt;&lt;font&gt;负责配方所有的基础数据管理，包括WET BULE、crust、chemical（weight、time）、process、machine&lt;/font&gt;&lt;/p&gt;&lt;p&gt;&lt;font&gt;负责所有配方版本的管理&lt;/font&gt;&lt;/p&gt;&lt;p&gt;&lt;br&gt;&lt;/p&gt;" style="text;html=1;whiteSpace=wrap;overflow=hidden;rounded=0;fontSize=14;fontStyle=1" vertex="1" parent="1">
          <mxGeometry x="160" y="140" width="490" height="180" as="geometry" />
        </mxCell>
        <mxCell id="yK8Zo3AVcZrI5DbEX7TS-1" value="&lt;h1 style=&quot;text-align: left; margin-top: 0px;&quot;&gt;&lt;font style=&quot;font-size: 22px;&quot;&gt;&lt;span style=&quot;background-color: rgb(255, 255, 255); color: rgba(0, 0, 0, 0.85); font-family: Inter, -apple-system, BlinkMacSystemFont, &amp;quot;Segoe UI&amp;quot;, &amp;quot;SF Pro SC&amp;quot;, &amp;quot;SF Pro Display&amp;quot;, &amp;quot;SF Pro Icons&amp;quot;, &amp;quot;PingFang SC&amp;quot;, &amp;quot;Hiragino Sans GB&amp;quot;, &amp;quot;Microsoft YaHei&amp;quot;, &amp;quot;Helvetica Neue&amp;quot;, Helvetica, Arial, sans-serif;&quot;&gt;&lt;font style=&quot;&quot;&gt;The process of PSM&amp;nbsp;&lt;/font&gt;&lt;/span&gt;&lt;span style=&quot;background-color: light-dark(rgb(255, 255, 255), rgb(18, 18, 18)); color: light-dark(rgba(0, 0, 0, 0.85), rgb(237, 237, 237)); font-family: Inter, -apple-system, BlinkMacSystemFont, &amp;quot;Segoe UI&amp;quot;, &amp;quot;SF Pro SC&amp;quot;, &amp;quot;SF Pro Display&amp;quot;, &amp;quot;SF Pro Icons&amp;quot;, &amp;quot;PingFang SC&amp;quot;, &amp;quot;Hiragino Sans GB&amp;quot;, &amp;quot;Microsoft YaHei&amp;quot;, &amp;quot;Helvetica Neue&amp;quot;, Helvetica, Arial, sans-serif;&quot;&gt;creating the&amp;nbsp; standard BOM&lt;/span&gt;&lt;/font&gt;&lt;/h1&gt;" style="text;html=1;align=center;verticalAlign=middle;whiteSpace=wrap;rounded=0;fontSize=13;fontStyle=1" vertex="1" parent="1">
          <mxGeometry x="290" y="330" width="520" height="30" as="geometry" />
        </mxCell>
      </root>
    </mxGraphModel>
  </diagram>
</mxfile>
